<svg width="65" height="16" viewBox="0 0 65 16" fill="none" xmlns="http://www.w3.org/2000/svg">
<path d="M9.352 8.976C9.352 10.832 7.992 12 5.8 12H0.408V0.799999H5.416C6.488 0.799999 7.352 1.072 7.976 1.6C8.616 2.128 8.936 2.832 8.936 3.712C8.936 4.992 8.232 5.872 7 6.24C8.488 6.56 9.352 7.52 9.352 8.976ZM4.968 2.56H2.424V5.424H4.968C6.264 5.424 6.856 4.944 6.856 3.984C6.856 3.04 6.264 2.56 4.968 2.56ZM7.24 8.704C7.24 7.68 6.616 7.168 5.352 7.168H2.424V10.24H5.352C6.616 10.24 7.24 9.728 7.24 8.704ZM10.8591 8.896V3.856H12.8111V8.688C12.8111 9.856 13.4191 10.448 14.5231 10.448C15.6271 10.448 16.2351 9.856 16.2351 8.688V3.856H18.1871V8.896C18.1871 10.944 16.7791 12.224 14.5231 12.224C12.2671 12.224 10.8591 10.944 10.8591 8.896ZM27.4963 6.72V12H25.5443V7.216C25.5443 5.984 25.0643 5.424 23.9923 5.424C22.7923 5.424 22.0243 6.128 22.0243 7.328V12H20.0723V3.856H21.9923V5.104C22.4403 4.192 23.4323 3.632 24.6643 3.632C26.4403 3.632 27.4963 4.752 27.4963 6.72ZM36.8775 6.72V12H34.9255V7.216C34.9255 5.984 34.4455 5.424 33.3735 5.424C32.1735 5.424 31.4055 6.128 31.4055 7.328V12H29.4535V3.856H31.3735V5.104C31.8215 4.192 32.8135 3.632 34.0455 3.632C35.8215 3.632 36.8775 4.752 36.8775 6.72ZM44.0988 3.856H46.0348V11.184C46.0348 13.92 44.5148 15.424 41.8268 15.424C40.4348 15.424 39.1548 15.008 38.3868 14.288L39.2668 12.864C39.9548 13.392 40.8348 13.68 41.7148 13.68C43.2348 13.68 44.1148 12.8 44.1148 11.184V10.48C43.6508 11.376 42.6588 11.92 41.4588 11.92C39.7148 11.92 38.6428 10.816 38.6428 8.848V3.856H40.5948V8.352C40.5948 9.584 41.0908 10.144 42.1308 10.144C43.3308 10.144 44.0988 9.408 44.0988 8.24V3.856ZM59.2855 12L58.2935 9.344H53.3975L52.4055 12H50.2775L54.6775 0.799999H56.9975L61.4135 12H59.2855ZM54.0535 7.6H57.6375L55.8455 2.8L54.0535 7.6ZM62.6869 12V0.799999H64.7189V12H62.6869Z" fill="white"/>
</svg>
