<svg width="40" height="40" viewBox="0 0 40 40" fill="none" xmlns="http://www.w3.org/2000/svg">
<rect width="40" height="40" rx="20" fill="url(#paint0_linear_5708_2192)"/>
<g clip-path="url(#clip0_5708_2192)">
<path d="M29.4531 9.03474C29.4018 8.58949 29.3256 8.1495 29.1785 7.72375C29.1268 7.57391 29.0569 7.43218 28.9679 7.29972C28.909 7.21212 28.8237 7.16597 28.7226 7.14318C28.599 7.1154 28.4749 7.12324 28.3531 7.14845C28.1492 7.19047 27.9511 7.25271 27.7556 7.32322C27.1425 7.54386 26.5676 7.84454 25.9885 8.1354C25.618 8.32142 25.2519 8.51627 24.8869 8.71312C24.5243 8.90854 24.1512 9.08517 23.7848 9.2739C23.537 9.40166 23.2815 9.51162 23.0191 9.60663C22.9649 9.62628 22.9103 9.6468 22.851 9.64665C22.7825 9.64665 22.7283 9.625 22.6994 9.55806C22.6789 9.51048 22.6574 9.46362 22.6468 9.41234C22.6257 9.31107 22.6021 9.21037 22.5799 9.10924C22.4641 8.5845 22.2786 8.0817 22.0734 7.58573C21.9639 7.32151 21.8244 7.07168 21.6324 6.85417C21.5684 6.78153 21.5004 6.71231 21.4054 6.67755C21.2407 6.61744 21.0725 6.60121 20.9002 6.64066C20.6954 6.68752 20.5071 6.77555 20.3227 6.8707C19.8473 7.11569 19.405 7.41253 18.9675 7.71578C18.2684 8.20049 17.5997 8.72309 16.9465 9.26535C16.5513 9.59338 16.1734 9.94007 15.7983 10.2896C15.5934 10.4805 15.4073 10.6891 15.2211 10.8977C15.04 11.1007 14.8741 11.313 14.7273 11.5418C14.5591 11.804 14.4216 12.0785 14.331 12.3752C14.1927 12.8291 14.1302 13.2949 14.1075 13.7665C14.0901 14.1313 14.0924 14.4959 14.1191 14.8606C14.1479 15.2531 14.1976 15.6428 14.2723 16.0297C14.3235 16.2938 14.3947 16.5539 14.435 16.8201C14.4418 16.8654 14.4373 16.895 14.3959 16.9248C13.6362 17.4739 12.9985 18.1389 12.4576 18.8948C12.0268 19.4965 11.6721 20.1394 11.3836 20.8174C11.3647 20.8617 11.3415 20.8901 11.2929 20.9023C11.2111 20.923 11.1348 20.9591 11.0572 20.9915C11.0126 21.0101 10.9753 21.0365 10.945 21.0742C10.8777 21.1577 10.8188 21.2466 10.7684 21.3406C10.6104 21.6346 10.4911 21.9432 10.4113 22.266C10.318 22.6437 10.2637 23.0276 10.2344 23.4149C10.2081 23.7616 10.2129 24.1074 10.2649 24.4523C10.2767 24.5309 10.2951 24.6045 10.3438 24.6681C10.3767 24.7111 10.3831 24.7541 10.3664 24.8054C10.3422 24.8797 10.3355 24.9574 10.3313 25.0351C10.303 25.5586 10.3239 26.0799 10.3924 26.5999C10.5155 27.5366 10.7581 28.4419 11.1282 29.3138C11.4752 30.131 11.9201 30.8916 12.502 31.5716C12.9295 32.0709 13.4152 32.505 13.9898 32.8391C14.1284 32.9197 14.2748 32.9855 14.4169 33.0596C14.5457 33.1265 14.6787 33.1817 14.8182 33.2231C15.1182 33.3121 15.4265 33.3547 15.7381 33.3724C16.4332 33.4118 17.1209 33.3536 17.801 33.2112C18.6155 33.0407 19.38 32.7413 20.1038 32.3403C21.1186 31.7784 22.0014 31.0565 22.7758 30.2064C24.0386 28.82 24.9342 27.2306 25.4874 25.4555C25.81 24.4202 25.9905 23.3618 26.0113 22.2784C26.0286 21.3755 25.9325 20.4855 25.6926 19.6123C25.6227 19.3573 25.5471 19.1039 25.4074 18.8749C25.3923 18.8501 25.4028 18.8388 25.419 18.8233C25.4831 18.7618 25.5468 18.6997 25.6099 18.6371C25.868 18.3809 26.1107 18.111 26.358 17.845C26.7138 17.4622 27.0465 17.0602 27.38 16.659C27.5653 16.4363 27.7371 16.2033 27.9224 15.981C28.1958 15.6528 28.4322 15.3021 28.6259 14.9238C29.1332 13.9337 29.3805 12.8768 29.4643 11.7784C29.4759 11.6262 29.4759 11.4731 29.4871 11.321C29.5108 11.0008 29.5304 10.6806 29.5284 10.3594C29.5228 9.91686 29.5038 9.47502 29.4531 9.03474ZM20.3997 15.4196C20.3733 15.5538 20.3468 15.6881 20.3217 15.8226C20.317 15.8474 20.3098 15.862 20.2811 15.8526C20.1304 15.8036 19.9726 15.7874 19.8182 15.7546C19.8054 15.7519 19.7932 15.7475 19.773 15.7417C19.9995 15.5222 20.221 15.3058 20.4649 15.0913C20.4413 15.21 20.4202 15.3148 20.3997 15.4196Z" fill="#020202"/>
<path d="M24.3371 21.7106C24.1272 21.6272 23.9201 21.5374 23.7086 21.4577C22.9468 21.1706 22.1645 20.9518 21.3676 20.7812C20.8699 20.6746 20.3686 20.5872 19.864 20.5201C19.3171 20.4473 18.7681 20.3946 18.2174 20.3577C17.4102 20.3036 16.6023 20.2926 15.7941 20.3161C15.3639 20.3287 14.9341 20.3537 14.5049 20.3882C14.0469 20.4249 13.5902 20.4734 13.1352 20.5346C12.7065 20.5923 12.2794 20.6598 11.8548 20.7424C11.8448 20.7444 11.8343 20.7447 11.8247 20.7457C11.8141 20.7303 11.8253 20.7199 11.83 20.7098C12.3177 19.6497 12.9621 18.6945 13.8151 17.8806C14.4922 17.2346 15.261 16.7241 16.1401 16.3767C16.8491 16.0966 17.5857 15.9571 18.3488 15.9547C19.0339 15.9526 19.6986 16.0711 20.3432 16.2984C20.3681 16.3071 20.3926 16.3169 20.4179 16.324C20.5461 16.3604 20.6457 16.3045 20.6742 16.1775C20.698 16.0713 20.7172 15.9644 20.7388 15.8578C21.0236 14.4627 21.448 13.1116 22.068 11.8225C22.1446 11.6633 22.2224 11.5042 22.3152 11.354C22.4767 11.0927 22.6766 10.8634 22.9377 10.6908C23.2683 10.4723 23.6047 10.2626 23.9432 10.0564C24.7324 9.57565 25.5356 9.11757 26.3477 8.67502C26.7673 8.44627 27.1883 8.21936 27.6242 8.02081C27.8133 7.93463 28.0078 7.86113 28.2054 7.7959C28.2201 7.80274 28.2549 7.7865 28.241 7.8261C28.2368 7.83834 28.2351 7.85131 28.2316 7.8637C28.1006 8.33232 27.9681 8.80051 27.839 9.26969C27.661 9.9165 27.4608 10.5563 27.2258 11.1856C26.9078 12.0371 26.5382 12.8655 26.0856 13.6573C25.848 14.0731 25.5878 14.4745 25.2836 14.8472C25.2693 14.8646 25.2473 14.8792 25.2548 14.9069C25.2332 14.9277 25.2115 14.9485 25.1898 14.9693C25.1797 14.9685 25.175 14.973 25.1755 14.9828L25.1731 14.9848C25.1631 14.9838 25.1587 14.9884 25.159 14.9981C24.9327 15.2005 24.6926 15.3872 24.4589 15.5812C23.9027 16.0431 23.3232 16.4763 22.7439 16.9096C22.6348 16.9912 22.5277 17.075 22.4116 17.1473C22.3165 17.2066 22.2873 17.2956 22.3178 17.4036C22.3306 17.4489 22.3488 17.4914 22.3741 17.5312C22.3671 17.5477 22.3764 17.5611 22.3828 17.5752C22.4186 17.6535 22.4665 17.7249 22.5193 17.793C22.7014 18.0277 22.8883 18.2588 23.0638 18.4983C23.2469 18.7486 23.4172 19.0073 23.5818 19.2693C23.753 19.542 23.8706 19.838 23.9749 20.1402C24.1038 20.5134 24.1942 20.8958 24.2736 21.2811C24.3028 21.4229 24.3303 21.5651 24.3367 21.7103L24.3371 21.7106Z" fill="white"/>
<path d="M23.8239 25.0595C23.6818 25.0303 23.5374 25.0158 23.3934 24.9987C23.1421 24.9687 22.8908 24.9375 22.6391 24.9113C22.403 24.8866 22.168 24.8512 21.9305 24.84C21.9148 24.8393 21.8984 24.8396 21.8834 24.8356C21.8267 24.8207 21.7809 24.8402 21.7363 24.8729C21.6618 24.9278 21.6044 24.9994 21.5376 25.062C21.2175 25.3624 20.8481 25.5901 20.4503 25.7766C20.0846 25.9479 19.7038 26.0775 19.3092 26.1677C19.0652 26.2235 18.8185 26.2647 18.5688 26.2908C18.327 26.3161 18.0849 26.3324 17.8421 26.3302C17.4744 26.3271 17.1106 26.2866 16.7513 26.2072C16.5869 26.1708 16.4182 26.1539 16.2574 26.101C15.8623 25.9713 15.4839 25.8085 15.1522 25.5559C14.8361 25.3149 14.597 25.0189 14.4832 24.6364C14.47 24.5918 14.4582 24.5465 14.4489 24.5009C14.4417 24.4649 14.4241 24.4515 14.3853 24.4488C14.2453 24.4392 14.1053 24.4452 13.9655 24.4405C13.925 24.4391 13.9093 24.4582 13.901 24.4928C13.8854 24.5584 13.8619 24.6218 13.835 24.6836C13.5618 25.3124 13.0996 25.7351 12.4127 25.8861C11.8059 26.0194 11.2681 25.8666 10.8134 25.4458C10.7951 25.4287 10.7818 25.4028 10.7501 25.4052C10.7483 25.8016 10.778 26.1963 10.8291 26.5892C10.9001 27.1333 11.0101 27.6701 11.1599 28.1987C11.3142 28.7422 11.4987 29.275 11.7601 29.7799C12.1147 30.4646 12.5423 31.0993 13.0868 31.6545C13.2128 31.7831 13.3273 31.9227 13.4722 32.0335C13.7366 32.2354 14.0296 32.3875 14.336 32.5158C14.6059 32.6289 14.8895 32.6856 15.1818 32.7021C15.578 32.7246 15.9672 32.6782 16.3512 32.5839C16.9134 32.4459 17.44 32.2226 17.945 31.9478C18.6715 31.5527 19.3339 31.0701 19.9469 30.5227C21.6408 29.01 22.93 27.2133 23.8525 25.1607C23.862 25.1396 23.8679 25.1169 23.8755 25.095C23.8736 25.0617 23.8467 25.0642 23.8239 25.0595ZM14.3978 26.4856C14.3219 26.6447 14.211 26.7792 14.0824 26.8995C14.0138 26.9636 13.9436 27.0264 13.8623 27.0759C13.8104 27.1075 13.7574 27.1361 13.6981 27.1511C13.6081 27.1737 13.5434 27.1518 13.5003 27.0864C13.3118 26.9628 13.2202 26.7753 13.156 26.5729C13.1141 26.4416 13.0953 26.3083 13.1328 26.169C13.1577 26.0767 13.2115 26.0207 13.2945 25.9828C13.4104 25.9298 13.5333 25.8993 13.6594 25.8879C13.8247 25.873 13.9905 25.8587 14.1564 25.8842C14.1773 25.8874 14.1981 25.8905 14.2189 25.8935C14.3072 25.9063 14.3709 25.9485 14.3962 26.0365C14.4552 26.0671 14.4668 26.1225 14.4712 26.1797C14.4796 26.2889 14.4438 26.3892 14.3978 26.4856Z" fill="white"/>
<path d="M17.8033 14.9765C17.7126 15.0812 17.6159 15.1801 17.5126 15.2729C17.3819 15.39 17.2635 15.5191 17.1411 15.6442C17.0934 15.6928 17.0417 15.7218 16.9736 15.7368C16.2645 15.8929 15.6025 16.1632 14.9801 16.5295C14.9561 16.5436 14.9351 16.5651 14.8973 16.5666C14.8805 16.4671 14.8641 16.3685 14.8476 16.2699C14.7077 15.4354 14.6433 14.5954 14.6699 13.7498C14.6819 13.3696 14.7076 12.9902 14.7939 12.6174C14.8167 12.5186 14.8505 12.4241 14.898 12.334C15.0808 11.9871 15.322 11.6796 15.5705 11.3775C16.0141 10.8387 16.4997 10.3386 17.0299 9.88078C17.5274 9.45105 18.0464 9.04752 18.5843 8.66736C19.0021 8.37223 19.4285 8.09006 19.867 7.82527C20.1436 7.65834 20.4273 7.50408 20.7171 7.36064C20.7404 7.3491 20.7635 7.33771 20.7867 7.32617C20.8081 7.34455 20.8048 7.36734 20.7988 7.39055C20.7353 7.63868 20.7004 7.89279 20.6338 8.14048C20.5203 8.56281 20.4208 8.98841 20.3346 9.41686C20.2714 9.73122 20.2075 10.0453 20.1227 10.355C20.0432 10.645 19.9318 10.9246 19.8358 11.2091C19.6166 11.8589 19.3393 12.4838 19.0137 13.0889C18.6707 13.726 18.2765 14.3314 17.8402 14.9108C17.8251 14.9309 17.8009 14.9468 17.8036 14.9766L17.8033 14.9765Z" fill="white"/>
<path d="M23.8765 25.0987C23.8746 25.0653 23.8477 25.0679 23.8249 25.0632C23.6828 25.034 23.5384 25.0195 23.3944 25.0024C23.1431 24.9723 22.8918 24.9411 22.6399 24.9149C22.4039 24.8903 22.1689 24.8549 21.9315 24.8437C21.9157 24.843 21.8994 24.8433 21.8843 24.8393C21.8276 24.8242 21.7818 24.8438 21.7373 24.8766C21.6628 24.9314 21.6052 25.0031 21.5387 25.0656C21.2185 25.366 20.8491 25.5938 20.4513 25.7802C20.0857 25.9516 19.7049 26.0812 19.3102 26.1714C19.0661 26.2272 18.8196 26.2684 18.5699 26.2944C18.328 26.3196 18.0859 26.336 17.8431 26.3339C17.4754 26.3307 17.1116 26.2901 16.7525 26.2108C16.5881 26.1745 16.4194 26.1574 16.2586 26.1047C15.8634 25.9749 15.4851 25.8121 15.1536 25.5596C14.8373 25.3187 14.5983 25.0227 14.4845 24.64C14.4713 24.5954 14.4595 24.5501 14.4502 24.5046C14.443 24.4684 14.4254 24.4551 14.3864 24.4524C14.2466 24.4427 14.1065 24.4489 13.9667 24.444C13.9261 24.4426 13.9104 24.4617 13.9021 24.4963C13.8866 24.562 13.863 24.6253 13.8362 24.6872C13.5629 25.3159 13.1006 25.7388 12.4138 25.8896C11.807 26.0229 11.2692 25.8701 10.8147 25.4493C10.7963 25.4322 10.7831 25.4063 10.7514 25.4087C10.7476 25.3183 10.7515 25.2283 10.764 25.1383C10.7905 25.134 10.8012 25.1558 10.8159 25.1683C11.0216 25.3438 11.2569 25.4703 11.5104 25.564C11.9088 25.7113 12.3073 25.6805 12.6927 25.5275C13.1943 25.3286 13.5424 24.979 13.7021 24.4634C13.7213 24.4014 13.7343 24.3379 13.7412 24.2737C13.745 24.2393 13.7597 24.2306 13.7914 24.2315C13.9128 24.2346 14.0341 24.2371 14.1555 24.2385C14.2956 24.2402 14.4344 24.2587 14.5738 24.2691C14.6135 24.2721 14.6328 24.2873 14.6478 24.3241C14.755 24.5873 14.8982 24.8312 15.0732 25.0566C15.2002 25.2204 15.3684 25.337 15.5493 25.4359C15.8538 25.6026 16.1823 25.7053 16.5214 25.7785C16.8833 25.8567 17.25 25.8925 17.62 25.9076C17.9693 25.9217 18.317 25.9066 18.6636 25.8691C19.1823 25.8128 19.6884 25.7023 20.172 25.505C20.4291 25.4002 20.6648 25.2632 20.8827 25.0897C21.0978 24.9185 21.3074 24.7407 21.524 24.5712C21.5783 24.5286 21.6372 24.5075 21.7059 24.5075C21.9331 24.5073 22.159 24.5258 22.385 24.5461C22.7481 24.5788 23.105 24.6493 23.4637 24.7082C23.6425 24.7377 23.82 24.7752 24.005 24.8104C23.9685 24.9102 23.9297 25.0072 23.8769 25.0987H23.8765Z" fill="#8C8D8D"/>
<path d="M17.8128 14.9746C17.8102 14.9449 17.8342 14.9289 17.8494 14.9088C18.2859 14.3295 18.6799 13.7242 19.0229 13.0869C19.3486 12.482 19.6258 11.857 19.845 11.2072C19.9411 10.9226 20.0524 10.643 20.1319 10.353C20.2169 10.0433 20.2806 9.7291 20.3438 9.41488C20.4301 8.98643 20.5296 8.56083 20.6431 8.1385C20.7096 7.89095 20.7445 7.63684 20.808 7.38857C20.814 7.36521 20.8173 7.34256 20.796 7.32419C20.8448 7.30467 20.8935 7.28488 20.9423 7.26565C20.9595 7.25895 20.9766 7.25155 20.9945 7.24798C21.0636 7.23417 21.0942 7.25696 21.0973 7.32675C21.1013 7.42019 21.0896 7.51263 21.0729 7.6045C21.0246 7.86944 20.9499 8.12853 20.8913 8.39118C20.7753 8.91151 20.6717 9.43425 20.5675 9.957C20.4618 10.4876 20.307 11.0069 20.1563 11.5267C20.0697 11.8253 19.9707 12.1196 19.8467 12.4061C19.7556 12.6167 19.6309 12.8087 19.5164 13.0067C19.4184 13.1759 19.3011 13.3315 19.1818 13.4867C18.9577 13.7784 18.7196 14.0589 18.4727 14.3315C18.2712 14.5539 18.058 14.7661 17.8334 14.9669C17.8283 14.9715 17.8196 14.9723 17.8125 14.9748L17.8128 14.9746Z" fill="#8D8C8C"/>
<path d="M25.2593 14.9065C25.2518 14.8787 25.274 14.8642 25.2881 14.8468C25.5923 14.474 25.8525 14.0726 26.0901 13.6569C26.5427 12.8652 26.9123 12.0366 27.2303 11.1852C27.4654 10.5559 27.6655 9.91604 27.8436 9.26923C27.9726 8.80005 28.1052 8.33186 28.2361 7.86324C28.2396 7.8507 28.2414 7.83774 28.2456 7.82563C28.2592 7.78604 28.2245 7.80227 28.21 7.79544C28.2935 7.76453 28.3805 7.74502 28.4664 7.72251C28.5028 7.71297 28.5275 7.72849 28.5427 7.76097C28.5538 7.78504 28.5575 7.81025 28.556 7.8366C28.5509 7.9346 28.54 8.03174 28.5155 8.12732C28.4086 8.54352 28.2709 8.95074 28.1417 9.36039C28.0505 9.64926 27.9643 9.93954 27.8728 10.2281C27.8039 10.4453 27.728 10.6603 27.6591 10.8773C27.4766 11.4524 27.3071 12.0312 27.1163 12.6038C27.0334 12.8524 26.9229 13.0902 26.8198 13.331C26.7737 13.4384 26.7232 13.5429 26.6607 13.6425C26.5756 13.7784 26.4702 13.8964 26.3481 14.0004C26.0073 14.2904 25.6657 14.5796 25.3239 14.8684C25.3051 14.8842 25.2915 14.9109 25.2595 14.9065H25.2593Z" fill="#8D8C8C"/>
<path d="M24.3401 21.7055C24.3337 21.5603 24.3062 21.4179 24.277 21.2763C24.1975 20.891 24.1072 20.5086 23.9783 20.1354C23.8739 19.8331 23.7564 19.5372 23.5851 19.2645C23.4205 19.0024 23.2503 18.7436 23.0671 18.4935C22.8917 18.2539 22.7048 18.0229 22.5227 17.7882C22.4699 17.7201 22.4221 17.6489 22.3862 17.5704C22.3798 17.5564 22.3705 17.543 22.3775 17.5264C22.5257 17.616 22.6605 17.7234 22.7904 17.8363C23.2366 18.2243 23.579 18.6898 23.8484 19.2085C24.1537 19.7964 24.3479 20.4194 24.4537 21.0699C24.4857 21.2666 24.5071 21.4645 24.5255 21.6626C24.529 21.7009 24.535 21.7397 24.5246 21.7875C24.4588 21.7664 24.3989 21.7372 24.3401 21.7055Z" fill="#8C8D8D"/>
<path d="M25.1797 14.9857C25.1792 14.9747 25.1843 14.9699 25.1952 14.9708C25.1952 14.9813 25.19 14.9862 25.1797 14.9857Z" fill="#8D8C8C"/>
<path d="M25.1641 14.9971C25.1636 14.9866 25.1685 14.9815 25.1793 14.9826C25.1796 14.9929 25.1746 14.9977 25.1641 14.9971Z" fill="#8D8C8C"/>
<path d="M14.3929 26.0384C14.3676 25.9503 14.304 25.9082 14.2156 25.8953C14.1948 25.8924 14.174 25.8892 14.1531 25.8861C13.9873 25.8606 13.8214 25.8748 13.6562 25.8898C13.53 25.9012 13.4072 25.9317 13.2912 25.9847C13.2082 26.0225 13.1544 26.0785 13.1296 26.1708C13.0921 26.3101 13.1108 26.4434 13.1527 26.5748C13.2169 26.7772 13.3085 26.9646 13.497 27.0883C13.5762 27.0982 13.6486 27.0767 13.7146 27.0366C13.9739 26.8789 14.173 26.6651 14.3173 26.4029C14.3795 26.2899 14.4112 26.1685 14.3929 26.0384ZM13.5001 26.9377C13.4852 26.9336 13.4738 26.9279 13.4646 26.9209C13.4643 26.9206 13.4642 26.9205 13.4639 26.9203C13.4551 26.9135 13.4486 26.9052 13.4432 26.8961C13.4432 26.896 13.4429 26.8958 13.4429 26.8955C13.4403 26.8911 13.438 26.8864 13.436 26.8814C13.4136 26.8498 13.3928 26.8139 13.3742 26.7755C13.3719 26.7705 13.3694 26.7656 13.3672 26.7607C13.3633 26.7522 13.3595 26.7438 13.3559 26.7353C13.3498 26.7211 13.3438 26.7068 13.3384 26.6924C13.3363 26.6866 13.3341 26.6807 13.3319 26.6748C13.3233 26.6513 13.3156 26.6273 13.3088 26.6034C13.3072 26.5981 13.3057 26.5929 13.3043 26.5874C13.3033 26.5839 13.3024 26.5802 13.3014 26.5766V26.5763C13.3001 26.5719 13.2989 26.5674 13.2979 26.5629C13.2975 26.5617 13.2972 26.5602 13.2969 26.5588C13.2697 26.4484 13.2604 26.3395 13.2749 26.2597C13.2749 26.2591 13.2751 26.2584 13.2752 26.2578C13.2771 26.248 13.2793 26.2381 13.2823 26.2284C13.2832 26.2251 13.2842 26.222 13.2854 26.2188C13.2864 26.2158 13.2876 26.2127 13.2887 26.2097C13.2899 26.2069 13.2911 26.2039 13.2924 26.2012C13.2934 26.1987 13.2945 26.1965 13.2956 26.1943C13.2963 26.1929 13.297 26.1916 13.2977 26.1903C13.2986 26.1886 13.2996 26.1871 13.3005 26.1855C13.302 26.1829 13.3036 26.1804 13.3053 26.1779C13.306 26.1859 13.3066 26.1938 13.3073 26.2017C13.3073 26.2024 13.3073 26.203 13.3073 26.2034C13.3082 26.2134 13.3091 26.2235 13.31 26.2335C13.311 26.2443 13.3118 26.255 13.313 26.2657C13.3143 26.2802 13.3158 26.2947 13.3172 26.3093C13.3187 26.3238 13.3201 26.3382 13.3219 26.3526C13.3235 26.3677 13.3254 26.3828 13.3272 26.3979C13.329 26.4115 13.3309 26.4249 13.3328 26.4385C13.3389 26.4809 13.3463 26.5231 13.3554 26.5649C13.3569 26.5718 13.3585 26.5785 13.3599 26.5853C13.3631 26.599 13.3665 26.6127 13.3701 26.6262C13.3701 26.6265 13.3701 26.6268 13.3704 26.627C13.3759 26.6477 13.3819 26.6681 13.3884 26.6884C13.3928 26.7021 13.3974 26.7155 13.4024 26.7289C13.4049 26.7356 13.4073 26.7421 13.4099 26.7488C13.4126 26.7555 13.4152 26.7622 13.4179 26.7688C13.4208 26.7757 13.4239 26.7829 13.427 26.7899C13.4297 26.796 13.4323 26.8021 13.4352 26.8084C13.4406 26.8196 13.4461 26.8309 13.4518 26.8421C13.4521 26.8427 13.4522 26.8431 13.4527 26.8435C13.4533 26.8448 13.4538 26.8461 13.4546 26.8474C13.4549 26.8477 13.4551 26.8481 13.4554 26.8484C13.4658 26.8608 13.4751 26.8737 13.4833 26.8888C13.4909 26.9022 13.4977 26.9172 13.5037 26.935C13.5043 26.9364 13.5047 26.9377 13.5051 26.9391C13.5034 26.9387 13.5017 26.9383 13.5001 26.9377Z" fill="#020202"/>
<path d="M13.5 27.0919C13.5792 27.1019 13.6516 27.0804 13.7176 27.0402C13.9769 26.8825 14.176 26.6687 14.3203 26.4065C14.3825 26.2935 14.4144 26.1722 14.396 26.042C14.4549 26.0726 14.4667 26.1282 14.471 26.1853C14.4793 26.2944 14.4437 26.3947 14.3976 26.4912C14.3218 26.6502 14.2109 26.7847 14.0822 26.905C14.0136 26.9691 13.9433 27.0319 13.8622 27.0815C13.8105 27.113 13.7573 27.1417 13.698 27.1567C13.608 27.1794 13.5433 27.1574 13.5001 27.092L13.5 27.0919Z" fill="#8C8D8D"/>
<path d="M13.5026 26.9407C13.4812 26.9411 13.4577 26.9216 13.4462 26.9054C13.3776 26.8072 13.3299 26.6941 13.2999 26.5793C13.2731 26.4778 13.2541 26.3651 13.2737 26.2606C13.2789 26.2327 13.2875 26.2043 13.3038 26.1807C13.3013 26.1844 13.3055 26.2015 13.306 26.2062C13.3068 26.2161 13.3077 26.2262 13.3086 26.2362C13.3103 26.2554 13.3121 26.2745 13.314 26.2938C13.3177 26.3318 13.3218 26.3697 13.3267 26.4076C13.3365 26.4821 13.3494 26.5563 13.3688 26.6289C13.3836 26.6847 13.4022 26.7396 13.4254 26.7926C13.4358 26.8159 13.4461 26.84 13.4602 26.8614C13.4762 26.8856 13.5007 26.9107 13.5025 26.9409L13.5026 26.9407Z" fill="white"/>
</g>
<defs>
<linearGradient id="paint0_linear_5708_2192" x1="0" y1="20" x2="40" y2="20" gradientUnits="userSpaceOnUse">
<stop stop-color="#E83D85"/>
<stop offset="0.285" stop-color="#AD3F96"/>
<stop offset="0.52" stop-color="#7F49A6"/>
<stop offset="0.765035" stop-color="#575CBA"/>
<stop offset="1" stop-color="#4464C9"/>
</linearGradient>
<clipPath id="clip0_5708_2192">
<rect width="19.3098" height="26.7653" fill="white" transform="translate(10.2188 6.61719)"/>
</clipPath>
</defs>
</svg>
