<svg width="79" height="30" viewBox="0 0 79 30" fill="none" xmlns="http://www.w3.org/2000/svg">
<rect x="0.898438" y="0.473633" width="78.0526" height="29.0526" rx="10.1053" fill="#1D1D1D"/>
<path d="M18.4282 4.47363C14.0336 4.47363 12.7483 4.47817 12.4985 4.4989C11.5966 4.57388 11.0354 4.71592 10.424 5.02039C9.95286 5.25443 9.58127 5.5257 9.21453 5.90598C8.54665 6.59948 8.14186 7.45266 7.99533 8.46684C7.92409 8.95919 7.90336 9.0596 7.89916 11.5745C7.89754 12.4128 7.89916 13.516 7.89916 14.9958C7.89916 19.3881 7.90401 20.6724 7.92506 20.9218C7.99792 21.7996 8.13555 22.3519 8.42699 22.956C8.98398 24.1124 10.0477 24.9805 11.3009 25.3044C11.7349 25.4161 12.2141 25.4777 12.8294 25.5068C13.0901 25.5182 15.7471 25.5263 18.4057 25.5263C21.0643 25.5263 23.7229 25.523 23.9771 25.5101C24.6895 25.4765 25.1032 25.421 25.5606 25.3028C26.8219 24.9772 27.8663 24.1221 28.4346 22.9495C28.7203 22.36 28.8653 21.7867 28.9308 20.9547C28.9451 20.7733 28.9511 17.8812 28.9511 14.9931C28.9511 12.1044 28.9446 9.21767 28.9303 9.03628C28.864 8.19087 28.719 7.6224 28.424 7.02154C28.182 6.52967 27.9132 6.16235 27.523 5.78678C26.8266 5.12146 25.975 4.71656 24.9601 4.57016C24.4683 4.49906 24.3704 4.478 21.8543 4.47363H18.4282Z" fill="url(#paint0_radial_5924_10953)"/>
<path d="M18.4282 4.47363C14.0336 4.47363 12.7483 4.47817 12.4985 4.4989C11.5966 4.57388 11.0354 4.71592 10.424 5.02039C9.95286 5.25443 9.58127 5.5257 9.21453 5.90598C8.54665 6.59948 8.14186 7.45266 7.99533 8.46684C7.92409 8.95919 7.90336 9.0596 7.89916 11.5745C7.89754 12.4128 7.89916 13.516 7.89916 14.9958C7.89916 19.3881 7.90401 20.6724 7.92506 20.9218C7.99792 21.7996 8.13555 22.3519 8.42699 22.956C8.98398 24.1124 10.0477 24.9805 11.3009 25.3044C11.7349 25.4161 12.2141 25.4777 12.8294 25.5068C13.0901 25.5182 15.7471 25.5263 18.4057 25.5263C21.0643 25.5263 23.7229 25.523 23.9771 25.5101C24.6895 25.4765 25.1032 25.421 25.5606 25.3028C26.8219 24.9772 27.8663 24.1221 28.4346 22.9495C28.7203 22.36 28.8653 21.7867 28.9308 20.9547C28.9451 20.7733 28.9511 17.8812 28.9511 14.9931C28.9511 12.1044 28.9446 9.21767 28.9303 9.03628C28.864 8.19087 28.719 7.6224 28.424 7.02154C28.182 6.52967 27.9132 6.16235 27.523 5.78678C26.8266 5.12146 25.975 4.71656 24.9601 4.57016C24.4683 4.49906 24.3704 4.478 21.8543 4.47363H18.4282Z" fill="url(#paint1_radial_5924_10953)"/>
<path d="M18.4282 4.47363C14.0336 4.47363 12.7483 4.47817 12.4985 4.4989C11.5966 4.57388 11.0354 4.71592 10.424 5.02039C9.95286 5.25443 9.58127 5.5257 9.21453 5.90598C8.54665 6.59948 8.14186 7.45266 7.99533 8.46684C7.92409 8.95919 7.90336 9.0596 7.89916 11.5745C7.89754 12.4128 7.89916 13.516 7.89916 14.9958C7.89916 19.3881 7.90401 20.6724 7.92506 20.9218C7.99792 21.7996 8.13555 22.3519 8.42699 22.956C8.98398 24.1124 10.0477 24.9805 11.3009 25.3044C11.7349 25.4161 12.2141 25.4777 12.8294 25.5068C13.0901 25.5182 15.7471 25.5263 18.4057 25.5263C21.0643 25.5263 23.7229 25.523 23.9771 25.5101C24.6895 25.4765 25.1032 25.421 25.5606 25.3028C26.8219 24.9772 27.8663 24.1221 28.4346 22.9495C28.7203 22.36 28.8653 21.7867 28.9308 20.9547C28.9451 20.7733 28.9511 17.8812 28.9511 14.9931C28.9511 12.1044 28.9446 9.21767 28.9303 9.03628C28.864 8.19087 28.719 7.6224 28.424 7.02154C28.182 6.52967 27.9132 6.16235 27.523 5.78678C26.8266 5.12146 25.975 4.71656 24.9601 4.57016C24.4683 4.49906 24.3704 4.478 21.8543 4.47363H18.4282Z" fill="url(#paint2_radial_5924_10953)"/>
<path d="M18.4282 4.47363C14.0336 4.47363 12.7483 4.47817 12.4985 4.4989C11.5966 4.57388 11.0354 4.71592 10.424 5.02039C9.95286 5.25443 9.58127 5.5257 9.21453 5.90598C8.54665 6.59948 8.14186 7.45266 7.99533 8.46684C7.92409 8.95919 7.90336 9.0596 7.89916 11.5745C7.89754 12.4128 7.89916 13.516 7.89916 14.9958C7.89916 19.3881 7.90401 20.6724 7.92506 20.9218C7.99792 21.7996 8.13555 22.3519 8.42699 22.956C8.98398 24.1124 10.0477 24.9805 11.3009 25.3044C11.7349 25.4161 12.2141 25.4777 12.8294 25.5068C13.0901 25.5182 15.7471 25.5263 18.4057 25.5263C21.0643 25.5263 23.7229 25.523 23.9771 25.5101C24.6895 25.4765 25.1032 25.421 25.5606 25.3028C26.8219 24.9772 27.8663 24.1221 28.4346 22.9495C28.7203 22.36 28.8653 21.7867 28.9308 20.9547C28.9451 20.7733 28.9511 17.8812 28.9511 14.9931C28.9511 12.1044 28.9446 9.21767 28.9303 9.03628C28.864 8.19087 28.719 7.6224 28.424 7.02154C28.182 6.52967 27.9132 6.16235 27.523 5.78678C26.8266 5.12146 25.975 4.71656 24.9601 4.57016C24.4683 4.49906 24.3704 4.478 21.8543 4.47363H18.4282Z" fill="url(#paint3_radial_5924_10953)"/>
<path d="M18.4297 7.17676C16.3039 7.17676 16.0371 7.18604 15.2022 7.22401C14.3689 7.26214 13.8001 7.39397 13.3024 7.58741C12.7876 7.78718 12.3508 8.05442 11.9158 8.48934C11.4804 8.9241 11.2129 9.36048 11.0123 9.87476C10.8183 10.3723 10.6862 10.9408 10.6487 11.7732C10.6113 12.6075 10.6016 12.8742 10.6016 14.9985C10.6016 17.1227 10.611 17.3885 10.6489 18.2228C10.6872 19.0555 10.8191 19.6239 11.0125 20.1212C11.2126 20.6356 11.48 21.072 11.9153 21.5068C12.3502 21.9419 12.7869 22.2098 13.3014 22.4095C13.7994 22.603 14.3684 22.7348 15.2015 22.7729C16.0365 22.8109 16.3031 22.8202 18.4288 22.8202C20.5547 22.8202 20.8207 22.8109 21.6557 22.7729C22.489 22.7348 23.0584 22.603 23.5564 22.4095C24.0711 22.2098 24.5072 21.9419 24.9421 21.5068C25.3775 21.072 25.6449 20.6357 25.8455 20.1214C26.0379 19.6239 26.17 19.0553 26.2092 18.223C26.2467 17.3887 26.2564 17.1227 26.2564 14.9985C26.2564 12.8742 26.2467 12.6076 26.2092 11.7733C26.17 10.9406 26.0379 10.3723 25.8455 9.87493C25.6449 9.36048 25.3775 8.92409 24.9421 8.48934C24.5067 8.05425 24.0713 7.78701 23.556 7.5874C23.0569 7.39397 22.4878 7.26214 21.6545 7.22401C20.8196 7.18604 20.5538 7.17676 18.4273 7.17676H18.4297ZM17.7275 8.5863C17.936 8.58597 18.1685 8.5863 18.4297 8.5863C20.5197 8.5863 20.7674 8.59379 21.5927 8.63127C22.3559 8.66615 22.7701 8.79357 23.046 8.90063C23.4113 9.0424 23.6717 9.21187 23.9455 9.48563C24.2195 9.75939 24.3891 10.0201 24.5313 10.3851C24.6384 10.6605 24.7661 11.0744 24.8009 11.837C24.8384 12.6616 24.8465 12.9093 24.8465 14.9967C24.8465 17.0841 24.8384 17.3318 24.8009 18.1563C24.766 18.9189 24.6384 19.3328 24.5313 19.6082C24.3894 19.9732 24.2195 20.2332 23.9455 20.5067C23.6716 20.7805 23.4115 20.95 23.046 21.0917C22.7704 21.1993 22.3559 21.3264 21.5927 21.3613C20.7676 21.3987 20.5197 21.4069 18.4297 21.4069C16.3396 21.4069 16.0919 21.3987 15.2668 21.3613C14.5036 21.3261 14.0894 21.1986 13.8133 21.0916C13.448 20.9498 13.1871 20.7803 12.9131 20.5066C12.6392 20.2328 12.4696 19.9728 12.3274 19.6076C12.2202 19.3322 12.0925 18.9183 12.0578 18.1557C12.0203 17.3311 12.0128 17.0834 12.0128 14.9947C12.0128 12.906 12.0203 12.6596 12.0578 11.8351C12.0927 11.0725 12.2202 10.6586 12.3274 10.3828C12.4692 10.0178 12.6392 9.75711 12.9131 9.48335C13.1871 9.20959 13.448 9.04012 13.8133 8.89803C14.0892 8.79047 14.5036 8.66338 15.2668 8.62834C15.9889 8.59574 16.2687 8.58597 17.7275 8.58433L17.7275 8.5863ZM22.608 9.88502C22.0894 9.88502 21.6687 10.305 21.6687 10.8233C21.6687 11.3415 22.0894 11.7619 22.608 11.7619C23.1266 11.7619 23.5473 11.3415 23.5473 10.8233C23.5473 10.3051 23.1266 9.88471 22.608 9.88471L22.608 9.88502ZM18.4297 10.9817C16.2098 10.9817 14.41 12.7802 14.41 14.9985C14.41 17.2167 16.2098 19.0144 18.4297 19.0144C20.6497 19.0144 22.4488 17.2167 22.4488 14.9985C22.4488 12.7802 20.6495 10.9817 18.4296 10.9817H18.4297ZM18.4297 12.3912C19.8707 12.3912 21.0389 13.5585 21.0389 14.9985C21.0389 16.4383 19.8707 17.6057 18.4297 17.6057C16.9887 17.6057 15.8206 16.4383 15.8206 14.9985C15.8206 13.5585 16.9887 12.3912 18.4297 12.3912Z" fill="white"/>
<path d="M40.9131 11.98H36.5331V14.188H40.6731V15.592H36.5331V19H35.0091V10.6H40.9131V11.98ZM41.5623 15.952C41.5623 14.164 42.8703 12.724 44.7783 12.724C46.7223 12.724 47.9943 14.164 47.9943 15.952C47.9943 17.728 46.7223 19.168 44.7783 19.168C42.8703 19.168 41.5623 17.728 41.5623 15.952ZM46.4943 15.952C46.4943 14.812 45.8223 14.056 44.7783 14.056C43.7343 14.056 43.0623 14.812 43.0623 15.952C43.0623 17.068 43.7343 17.836 44.7783 17.836C45.8223 17.836 46.4943 17.068 46.4943 15.952ZM49.0977 19V10.216H50.5617V19H49.0977ZM52.0421 19V10.216H53.5061V19H52.0421ZM54.6025 15.952C54.6025 14.164 55.9105 12.724 57.8185 12.724C59.7625 12.724 61.0345 14.164 61.0345 15.952C61.0345 17.728 59.7625 19.168 57.8185 19.168C55.9105 19.168 54.6025 17.728 54.6025 15.952ZM59.5345 15.952C59.5345 14.812 58.8625 14.056 57.8185 14.056C56.7745 14.056 56.1025 14.812 56.1025 15.952C56.1025 17.068 56.7745 17.836 57.8185 17.836C58.8625 17.836 59.5345 17.068 59.5345 15.952ZM69.6165 12.892H71.1165L69.1965 19H67.5765L66.2205 14.692L64.8525 19H63.2325L61.3245 12.892H62.8125L64.1085 17.296L65.5005 12.892H66.9405L68.3325 17.296L69.6165 12.892Z" fill="white"/>
<defs>
<radialGradient id="paint0_radial_5924_10953" cx="0" cy="0" r="1" gradientUnits="userSpaceOnUse" gradientTransform="translate(28.2713 14.3413) rotate(164.25) scale(13.4514 9.69111)">
<stop stop-color="#FF005F"/>
<stop offset="1" stop-color="#FC01D8"/>
</radialGradient>
<radialGradient id="paint1_radial_5924_10953" cx="0" cy="0" r="1" gradientUnits="userSpaceOnUse" gradientTransform="translate(13.4904 27.1477) rotate(-90) scale(16.8046 17.8293)">
<stop stop-color="#FFCC00"/>
<stop offset="0.1242" stop-color="#FFCC00"/>
<stop offset="0.5672" stop-color="#FE4A05"/>
<stop offset="0.6942" stop-color="#FF0F3F"/>
<stop offset="1" stop-color="#FE0657" stop-opacity="0"/>
</radialGradient>
<radialGradient id="paint2_radial_5924_10953" cx="0" cy="0" r="1" gradientUnits="userSpaceOnUse" gradientTransform="translate(18.9567 25.2294) rotate(-59.8703) scale(6.94885 9.04662)">
<stop stop-color="#FFCC00"/>
<stop offset="1" stop-color="#FFCC00" stop-opacity="0"/>
</radialGradient>
<radialGradient id="paint3_radial_5924_10953" cx="0" cy="0" r="1" gradientUnits="userSpaceOnUse" gradientTransform="translate(10.7548 5.33089) rotate(164.274) scale(13.3022 4.53206)">
<stop stop-color="#780CFF"/>
<stop offset="1" stop-color="#820BFF" stop-opacity="0"/>
</radialGradient>
</defs>
</svg>
