<svg width="197" height="40" viewBox="0 0 197 40" fill="none" xmlns="http://www.w3.org/2000/svg">
<rect width="197" height="40" rx="12" fill="url(#paint0_radial_5978_6603)"/>
<rect width="197" height="40" rx="12" fill="black" fill-opacity="0.2"/>
<rect width="197" height="40" rx="12" fill="url(#paint1_radial_5978_6603)" fill-opacity="0.95"/>
<g clip-path="url(#clip0_5978_6603)">
<path d="M25.5 12.2107C28.0383 12.2107 28.3389 12.2219 29.3371 12.2664C30.2648 12.3072 30.7658 12.4631 31.0998 12.593C31.5414 12.7637 31.8605 12.9715 32.1908 13.3018C32.5248 13.6357 32.7289 13.9512 32.8996 14.3928C33.0295 14.7268 33.1854 15.2314 33.2262 16.1555C33.2707 17.1574 33.2818 17.458 33.2818 19.9926C33.2818 22.5309 33.2707 22.8314 33.2262 23.8297C33.1854 24.7574 33.0295 25.2584 32.8996 25.5924C32.7289 26.034 32.5211 26.3531 32.1908 26.6834C31.8568 27.0174 31.5414 27.2215 31.0998 27.3922C30.7658 27.5221 30.2611 27.6779 29.3371 27.7188C28.3352 27.7633 28.0346 27.7744 25.5 27.7744C22.9617 27.7744 22.6611 27.7633 21.6629 27.7188C20.7352 27.6779 20.2342 27.5221 19.9002 27.3922C19.4586 27.2215 19.1395 27.0137 18.8092 26.6834C18.4752 26.3494 18.2711 26.034 18.1004 25.5924C17.9705 25.2584 17.8146 24.7537 17.7738 23.8297C17.7293 22.8277 17.7182 22.5271 17.7182 19.9926C17.7182 17.4543 17.7293 17.1537 17.7738 16.1555C17.8146 15.2277 17.9705 14.7268 18.1004 14.3928C18.2711 13.9512 18.4789 13.632 18.8092 13.3018C19.1432 12.9678 19.4586 12.7637 19.9002 12.593C20.2342 12.4631 20.7389 12.3072 21.6629 12.2664C22.6611 12.2219 22.9617 12.2107 25.5 12.2107ZM25.5 10.5C22.9209 10.5 22.598 10.5111 21.585 10.5557C20.5756 10.6002 19.8816 10.7635 19.2805 10.9973C18.6533 11.2422 18.1227 11.565 17.5957 12.0957C17.065 12.6227 16.7422 13.1533 16.4973 13.7768C16.2635 14.3816 16.1002 15.0719 16.0557 16.0812C16.0111 17.098 16 17.4209 16 20C16 22.5791 16.0111 22.902 16.0557 23.915C16.1002 24.9244 16.2635 25.6184 16.4973 26.2195C16.7422 26.8467 17.065 27.3773 17.5957 27.9043C18.1227 28.4312 18.6533 28.7578 19.2768 28.999C19.8816 29.2328 20.5719 29.3961 21.5813 29.4406C22.5943 29.4852 22.9172 29.4963 25.4963 29.4963C28.0754 29.4963 28.3982 29.4852 29.4113 29.4406C30.4207 29.3961 31.1147 29.2328 31.7158 28.999C32.3393 28.7578 32.8699 28.4312 33.3969 27.9043C33.9238 27.3773 34.2504 26.8467 34.4916 26.2232C34.7254 25.6184 34.8887 24.9281 34.9332 23.9188C34.9777 22.9057 34.9889 22.5828 34.9889 20.0037C34.9889 17.4246 34.9777 17.1018 34.9332 16.0887C34.8887 15.0793 34.7254 14.3854 34.4916 13.7842C34.2578 13.1533 33.935 12.6227 33.4043 12.0957C32.8773 11.5688 32.3467 11.2422 31.7232 11.001C31.1184 10.7672 30.4281 10.6039 29.4188 10.5594C28.402 10.5111 28.0791 10.5 25.5 10.5Z" fill="white"/>
<path d="M25.4971 15.1201C22.8029 15.1201 20.6172 17.3059 20.6172 20C20.6172 22.6941 22.8029 24.8799 25.4971 24.8799C28.1912 24.8799 30.377 22.6941 30.377 20C30.377 17.3059 28.1912 15.1201 25.4971 15.1201ZM25.4971 23.1654C23.7492 23.1654 22.3316 21.7479 22.3316 20C22.3316 18.2521 23.7492 16.8346 25.4971 16.8346C27.2449 16.8346 28.6625 18.2521 28.6625 20C28.6625 21.7479 27.2449 23.1654 25.4971 23.1654Z" fill="white"/>
<path d="M31.716 14.9273C31.716 15.5582 31.2039 16.0666 30.5768 16.0666C29.9459 16.0666 29.4375 15.5545 29.4375 14.9273C29.4375 14.2965 29.9496 13.7881 30.5768 13.7881C31.2039 13.7881 31.716 14.3002 31.716 14.9273Z" fill="white"/>
</g>
<path d="M48.12 16.81H43.01V19.386H47.84V21.024H43.01V25H41.232V15.2H48.12V16.81ZM49.2703 21.444C49.2703 19.358 50.7963 17.678 53.0223 17.678C55.2903 17.678 56.7743 19.358 56.7743 21.444C56.7743 23.516 55.2903 25.196 53.0223 25.196C50.7963 25.196 49.2703 23.516 49.2703 21.444ZM55.0243 21.444C55.0243 20.114 54.2403 19.232 53.0223 19.232C51.8043 19.232 51.0203 20.114 51.0203 21.444C51.0203 22.746 51.8043 23.642 53.0223 23.642C54.2403 23.642 55.0243 22.746 55.0243 21.444ZM58.4546 25V14.752H60.1626V25H58.4546ZM62.2828 25V14.752H63.9908V25H62.2828ZM65.6629 21.444C65.6629 19.358 67.1889 17.678 69.4149 17.678C71.6829 17.678 73.1669 19.358 73.1669 21.444C73.1669 23.516 71.6829 25.196 69.4149 25.196C67.1889 25.196 65.6629 23.516 65.6629 21.444ZM71.4169 21.444C71.4169 20.114 70.6329 19.232 69.4149 19.232C68.1969 19.232 67.4129 20.114 67.4129 21.444C67.4129 22.746 68.1969 23.642 69.4149 23.642C70.6329 23.642 71.4169 22.746 71.4169 21.444ZM83.5722 17.874H85.3222L83.0822 25H81.1922L79.6102 19.974L78.0142 25H76.1242L73.8982 17.874H75.6342L77.1462 23.012L78.7702 17.874H80.4502L82.0742 23.012L83.5722 17.874ZM89.1785 21.444C89.1785 19.358 90.7045 17.678 92.9305 17.678C95.1985 17.678 96.6825 19.358 96.6825 21.444C96.6825 23.516 95.1985 25.196 92.9305 25.196C90.7045 25.196 89.1785 23.516 89.1785 21.444ZM94.9325 21.444C94.9325 20.114 94.1485 19.232 92.9305 19.232C91.7125 19.232 90.9285 20.114 90.9285 21.444C90.9285 22.746 91.7125 23.642 92.9305 23.642C94.1485 23.642 94.9325 22.746 94.9325 21.444ZM104.859 20.38V25H103.151V20.814C103.151 19.736 102.731 19.246 101.793 19.246C100.743 19.246 100.071 19.862 100.071 20.912V25H98.3628V17.874H100.043V18.966C100.435 18.168 101.303 17.678 102.381 17.678C103.935 17.678 104.859 18.658 104.859 20.38ZM110.262 25V15.2H112.04V25H110.262ZM120.841 20.38V25H119.133V20.814C119.133 19.736 118.713 19.246 117.775 19.246C116.725 19.246 116.053 19.862 116.053 20.912V25H114.345V17.874H116.025V18.966C116.417 18.168 117.285 17.678 118.363 17.678C119.917 17.678 120.841 18.658 120.841 20.38ZM122.302 23.838L123.226 22.76C123.786 23.376 124.654 23.74 125.564 23.74C126.362 23.74 126.824 23.446 126.824 22.984C126.824 22.606 126.544 22.368 125.83 22.2L124.668 21.934C123.212 21.598 122.554 20.926 122.554 19.918C122.554 18.574 123.688 17.678 125.494 17.678C126.74 17.678 127.804 18.098 128.42 18.812L127.51 19.918C126.908 19.4 126.222 19.134 125.452 19.134C124.668 19.134 124.262 19.414 124.262 19.862C124.262 20.212 124.528 20.408 125.256 20.576L126.488 20.87C127.944 21.192 128.532 21.85 128.532 22.872C128.532 24.314 127.412 25.196 125.55 25.196C124.15 25.196 122.96 24.678 122.302 23.838ZM130.683 22.914V19.372H129.339V17.874H130.683V15.774H132.391V17.874H134.407V19.372H132.391V22.69C132.391 23.348 132.685 23.586 133.413 23.586C133.763 23.586 134.113 23.544 134.435 23.474V24.916C134.001 25.042 133.539 25.112 133.049 25.112C131.439 25.112 130.683 24.426 130.683 22.914ZM141.142 17.874H142.822V25H141.142V23.866C140.736 24.706 139.784 25.196 138.706 25.196C136.816 25.196 135.43 23.642 135.43 21.444C135.43 19.232 136.816 17.678 138.706 17.678C139.784 17.678 140.736 18.182 141.142 19.022V17.874ZM141.184 21.444C141.184 20.114 140.4 19.232 139.182 19.232C137.964 19.232 137.18 20.114 137.18 21.444C137.18 22.746 137.964 23.642 139.182 23.642C140.4 23.642 141.184 22.746 141.184 21.444ZM150.235 17.874H151.915V24.174C151.915 26.596 150.529 27.996 148.065 27.996C146.707 27.996 145.503 27.576 144.733 26.862L145.559 25.616C146.245 26.162 147.099 26.47 147.981 26.47C149.423 26.47 150.235 25.672 150.235 24.174V23.586C149.829 24.426 148.905 24.93 147.785 24.93C145.895 24.93 144.509 23.446 144.509 21.332C144.509 19.218 145.909 17.678 147.799 17.678C148.905 17.678 149.829 18.182 150.235 19.036V17.874ZM150.277 21.318C150.277 20.086 149.493 19.218 148.275 19.218C147.057 19.218 146.273 20.086 146.273 21.318C146.273 22.55 147.057 23.418 148.275 23.418C149.493 23.418 150.277 22.55 150.277 21.318ZM158.431 17.846V19.442C158.137 19.4 157.871 19.372 157.647 19.372C156.373 19.372 155.743 20.03 155.743 21.486V25H154.035V17.874H155.715V19.064C156.065 18.238 156.849 17.748 157.815 17.748C158.039 17.748 158.249 17.776 158.431 17.846ZM164.808 17.874H166.488V25H164.808V23.866C164.402 24.706 163.45 25.196 162.372 25.196C160.482 25.196 159.096 23.642 159.096 21.444C159.096 19.232 160.482 17.678 162.372 17.678C163.45 17.678 164.402 18.182 164.808 19.022V17.874ZM164.85 21.444C164.85 20.114 164.066 19.232 162.848 19.232C161.63 19.232 160.846 20.114 160.846 21.444C160.846 22.746 161.63 23.642 162.848 23.642C164.066 23.642 164.85 22.746 164.85 21.444ZM179.529 20.366V25H177.821V20.786C177.821 19.722 177.429 19.246 176.575 19.246C175.581 19.246 174.923 19.876 174.923 20.898V25H173.215V20.786C173.215 19.722 172.823 19.246 171.969 19.246C170.975 19.246 170.331 19.876 170.331 20.898V25H168.623V17.874H170.303V18.952C170.695 18.168 171.549 17.678 172.557 17.678C173.579 17.678 174.363 18.182 174.699 19.064C175.077 18.224 176.001 17.678 177.135 17.678C178.647 17.678 179.529 18.672 179.529 20.366Z" fill="white"/>
<defs>
<radialGradient id="paint0_radial_5978_6603" cx="0" cy="0" r="1" gradientUnits="userSpaceOnUse" gradientTransform="translate(166.465 45.4) rotate(-157.195) scale(126.728 171.991)">
<stop offset="0.24392" stop-color="#FF1B90"/>
<stop offset="0.436673" stop-color="#F80261"/>
<stop offset="0.688476" stop-color="#ED00C0"/>
<stop offset="0.776787" stop-color="#C500E9"/>
<stop offset="0.893155" stop-color="#7017FF"/>
</radialGradient>
<radialGradient id="paint1_radial_5978_6603" cx="0" cy="0" r="1" gradientUnits="userSpaceOnUse" gradientTransform="translate(71.4125 38.62) rotate(-17.6395) scale(65.7368 43.5307)">
<stop stop-color="#D7B400"/>
<stop offset="0.484375" stop-color="#FF6930"/>
<stop offset="0.734375" stop-color="#FE3B36"/>
<stop offset="1" stop-color="#FE3B36" stop-opacity="0"/>
</radialGradient>
<clipPath id="clip0_5978_6603">
<rect width="19" height="19" fill="white" transform="translate(16 10.5)"/>
</clipPath>
</defs>
</svg>
