<svg width="66" height="30" viewBox="0 0 66 30" fill="none" xmlns="http://www.w3.org/2000/svg">
<rect x="0.945312" y="0.473633" width="65.0526" height="29.0526" rx="10.1053" fill="#1D1D1D"/>
<path d="M18.4716 25.5263C24.2852 25.5263 28.9979 20.8135 28.9979 14.9999C28.9979 9.18642 24.2852 4.47363 18.4716 4.47363C12.6581 4.47363 7.94531 9.18642 7.94531 14.9999C7.94531 20.8135 12.6581 25.5263 18.4716 25.5263Z" fill="#25D366"/>
<path fill-rule="evenodd" clip-rule="evenodd" d="M18.8119 20.8565H18.8093C17.7617 20.8562 16.7324 20.5933 15.8181 20.0947L12.5 20.9651L13.388 17.7216C12.8402 16.7723 12.552 15.6956 12.5525 14.5924C12.5539 11.1413 15.3618 8.3335 18.8118 8.3335C20.4862 8.33422 22.0578 8.98607 23.2396 10.1692C24.4213 11.3523 25.0718 12.9249 25.0711 14.5973C25.0697 18.0477 22.2629 20.8551 18.8119 20.8565ZM15.9744 18.9615L16.1644 19.0742C16.9632 19.5482 17.8788 19.799 18.8123 19.7994H18.8144C21.6819 19.7994 24.0157 17.4655 24.0168 14.5969C24.0174 13.2068 23.4767 11.8997 22.4945 10.9163C21.5123 9.93296 20.2061 9.39113 18.8165 9.39065C15.9468 9.39065 13.613 11.7243 13.6118 14.5927C13.6114 15.5757 13.8865 16.5331 14.4073 17.3614L14.531 17.5582L14.0054 19.478L15.9744 18.9615ZM21.7513 15.945C21.8604 15.9978 21.934 16.0334 21.9655 16.0859C22.0045 16.1511 22.0045 16.4642 21.8743 16.8296C21.7439 17.1949 21.1191 17.5283 20.8186 17.5732C20.5491 17.6135 20.2082 17.6303 19.8335 17.5112C19.6064 17.4392 19.3151 17.3429 18.9419 17.1818C17.4757 16.5487 16.4849 15.1276 16.2976 14.8591C16.2845 14.8402 16.2753 14.8271 16.2702 14.8202L16.2689 14.8186C16.1862 14.7081 15.6316 13.9682 15.6316 13.2024C15.6316 12.482 15.9855 12.1044 16.1483 11.9305C16.1595 11.9186 16.1698 11.9077 16.179 11.8976C16.3223 11.7411 16.4918 11.7019 16.596 11.7019C16.7003 11.7019 16.8046 11.7029 16.8958 11.7075C16.907 11.708 16.9187 11.708 16.9308 11.7079C17.0219 11.7073 17.1356 11.7067 17.2477 11.9759C17.2908 12.0795 17.3539 12.2332 17.4204 12.3952C17.555 12.7228 17.7037 13.0848 17.7299 13.1372C17.769 13.2155 17.795 13.3068 17.7429 13.4112C17.7351 13.4269 17.7278 13.4416 17.7209 13.4558C17.6818 13.5357 17.653 13.5945 17.5865 13.6721C17.5604 13.7026 17.5334 13.7355 17.5064 13.7684C17.4526 13.8339 17.3988 13.8994 17.3519 13.9461C17.2736 14.0241 17.1921 14.1087 17.2833 14.2653C17.3746 14.4219 17.6884 14.934 18.1534 15.3487C18.6532 15.7945 19.0876 15.9829 19.3077 16.0784C19.3507 16.0971 19.3856 16.1122 19.4111 16.125C19.5675 16.2033 19.6587 16.1902 19.7499 16.0859C19.8412 15.9815 20.1409 15.6292 20.2451 15.4726C20.3494 15.3161 20.4537 15.3422 20.597 15.3943C20.7404 15.4466 21.5093 15.8249 21.6657 15.9032C21.6963 15.9185 21.7248 15.9322 21.7513 15.945Z" fill="#FDFDFD"/>
<path d="M34.228 18.004L35.104 16.912C35.62 17.452 36.208 17.716 36.88 17.716C37.9 17.716 38.524 17.056 38.524 15.868V10.6H40.048V15.988C40.048 16.984 39.772 17.764 39.22 18.328C38.668 18.892 37.912 19.168 36.964 19.168C35.824 19.168 34.84 18.76 34.228 18.004ZM41.1638 15.952C41.1638 14.164 42.4718 12.724 44.3798 12.724C46.3238 12.724 47.5958 14.164 47.5958 15.952C47.5958 17.728 46.3238 19.168 44.3798 19.168C42.4718 19.168 41.1638 17.728 41.1638 15.952ZM46.0958 15.952C46.0958 14.812 45.4238 14.056 44.3798 14.056C43.3358 14.056 42.6638 14.812 42.6638 15.952C42.6638 17.068 43.3358 17.836 44.3798 17.836C45.4238 17.836 46.0958 17.068 46.0958 15.952ZM48.5073 10.96C48.5073 10.432 48.8793 10.048 49.4433 10.048C49.9833 10.048 50.3673 10.432 50.3673 10.96C50.3673 11.488 49.9833 11.872 49.4433 11.872C48.8793 11.872 48.5073 11.488 48.5073 10.96ZM48.7113 19V12.892H50.1753V19H48.7113ZM57.2351 15.04V19H55.7711V15.412C55.7711 14.488 55.4111 14.068 54.6071 14.068C53.7071 14.068 53.1311 14.596 53.1311 15.496V19H51.6671V12.892H53.1071V13.828C53.4431 13.144 54.1871 12.724 55.1111 12.724C56.4431 12.724 57.2351 13.564 57.2351 15.04Z" fill="white"/>
</svg>
