<svg width="259" height="40" viewBox="0 0 259 40" fill="none" xmlns="http://www.w3.org/2000/svg">
<rect width="259" height="40" rx="12" fill="#2BDA6C"/>
<path d="M16 29.5L17.3355 24.621C16.5114 23.1928 16.0784 21.5738 16.0792 19.9137C16.0815 14.7235 20.3051 10.5 25.4945 10.5C28.0128 10.5008 30.3767 11.4817 32.1548 13.2613C33.932 15.041 34.9105 17.4065 34.9098 19.9224C34.9074 25.1134 30.6838 29.3369 25.4945 29.3369C23.919 29.3361 22.3666 28.9411 20.9915 28.1906L16 29.5ZM21.2226 26.4861C22.5495 27.2738 23.8161 27.7457 25.4913 27.7465C29.8043 27.7465 33.3177 24.2362 33.3201 19.9208C33.3217 15.5967 29.8249 12.0912 25.4976 12.0897C21.1815 12.0897 17.6704 15.5999 17.6688 19.9145C17.668 21.676 18.1842 22.9949 19.0511 24.3747L18.2602 27.2628L21.2226 26.4861ZM30.2373 22.1605C30.1788 22.0623 30.022 22.0037 29.7861 21.8857C29.551 21.7678 28.3943 21.1986 28.1782 21.1202C27.9629 21.0418 27.8061 21.0023 27.6486 21.2382C27.4918 21.4733 27.0406 22.0037 26.9036 22.1605C26.7667 22.3172 26.6289 22.337 26.3938 22.219C26.1587 22.1011 25.4002 21.8533 24.5017 21.0513C23.8027 20.4275 23.33 19.6572 23.1931 19.4213C23.0561 19.1862 23.1788 19.0587 23.296 18.9415C23.4021 18.8363 23.5311 18.6668 23.6491 18.5291C23.7686 18.3929 23.8074 18.2948 23.8866 18.1372C23.965 17.9805 23.9262 17.8427 23.8668 17.7248C23.8074 17.6076 23.3372 16.4494 23.1416 15.9783C22.95 15.52 22.7561 15.5817 22.612 15.5746L22.1608 15.5667C22.004 15.5667 21.7491 15.6252 21.5338 15.8612C21.3184 16.0971 20.7104 16.6655 20.7104 17.8237C20.7104 18.9819 21.5535 20.1005 21.6707 20.2573C21.7887 20.414 23.3292 22.7906 25.6892 23.8095C26.2505 24.0518 26.6891 24.1966 27.0303 24.3051C27.594 24.484 28.107 24.4587 28.5123 24.3985C28.9643 24.3312 29.904 23.8293 30.1004 23.2799C30.2967 22.7297 30.2967 22.2586 30.2373 22.1605Z" fill="white"/>
<path d="M40.285 24.255L41.38 22.89C42.025 23.565 42.76 23.895 43.6 23.895C44.875 23.895 45.655 23.07 45.655 21.585V15H47.56V21.735C47.56 22.98 47.215 23.955 46.525 24.66C45.835 25.365 44.89 25.71 43.705 25.71C42.28 25.71 41.05 25.2 40.285 24.255ZM49.3758 21.69C49.3758 19.455 51.0108 17.655 53.3958 17.655C55.8258 17.655 57.4158 19.455 57.4158 21.69C57.4158 23.91 55.8258 25.71 53.3958 25.71C51.0108 25.71 49.3758 23.91 49.3758 21.69ZM55.5408 21.69C55.5408 20.265 54.7008 19.32 53.3958 19.32C52.0908 19.32 51.2508 20.265 51.2508 21.69C51.2508 23.085 52.0908 24.045 53.3958 24.045C54.7008 24.045 55.5408 23.085 55.5408 21.69ZM58.9762 15.45C58.9762 14.79 59.4412 14.31 60.1462 14.31C60.8212 14.31 61.3012 14.79 61.3012 15.45C61.3012 16.11 60.8212 16.59 60.1462 16.59C59.4412 16.59 58.9762 16.11 58.9762 15.45ZM59.2312 25.5V17.865H61.0612V25.5H59.2312ZM70.307 20.55V25.5H68.477V21.015C68.477 19.86 68.027 19.335 67.022 19.335C65.897 19.335 65.177 19.995 65.177 21.12V25.5H63.347V17.865H65.147V19.035C65.567 18.18 66.497 17.655 67.652 17.655C69.317 17.655 70.307 18.705 70.307 20.55ZM88.0564 15H90.0364L86.8714 25.5H84.8464L82.4614 17.715L80.0614 25.5H78.0214L74.8714 15H76.8514L79.1314 22.905L81.5314 15H83.3764L85.7764 22.905L88.0564 15ZM98.476 20.55V25.5H96.646V21.015C96.646 19.86 96.196 19.335 95.191 19.335C94.066 19.335 93.346 19.995 93.346 21.12V25.5H91.516V14.52H93.346V18.975C93.781 18.135 94.681 17.655 95.821 17.655C97.486 17.655 98.476 18.705 98.476 20.55ZM106.326 17.865H108.126V25.5H106.326V24.285C105.891 25.185 104.871 25.71 103.716 25.71C101.691 25.71 100.206 24.045 100.206 21.69C100.206 19.32 101.691 17.655 103.716 17.655C104.871 17.655 105.891 18.195 106.326 19.095V17.865ZM106.371 21.69C106.371 20.265 105.531 19.32 104.226 19.32C102.921 19.32 102.081 20.265 102.081 21.69C102.081 23.085 102.921 24.045 104.226 24.045C105.531 24.045 106.371 23.085 106.371 21.69ZM111.042 23.265V19.47H109.602V17.865H111.042V15.615H112.872V17.865H115.032V19.47H112.872V23.025C112.872 23.73 113.187 23.985 113.967 23.985C114.342 23.985 114.717 23.94 115.062 23.865V25.41C114.597 25.545 114.102 25.62 113.577 25.62C111.852 25.62 111.042 24.885 111.042 23.265ZM116.11 24.255L117.1 23.1C117.7 23.76 118.63 24.15 119.605 24.15C120.46 24.15 120.955 23.835 120.955 23.34C120.955 22.935 120.655 22.68 119.89 22.5L118.645 22.215C117.085 21.855 116.38 21.135 116.38 20.055C116.38 18.615 117.595 17.655 119.53 17.655C120.865 17.655 122.005 18.105 122.665 18.87L121.69 20.055C121.045 19.5 120.31 19.215 119.485 19.215C118.645 19.215 118.21 19.515 118.21 19.995C118.21 20.37 118.495 20.58 119.275 20.76L120.595 21.075C122.155 21.42 122.785 22.125 122.785 23.22C122.785 24.765 121.585 25.71 119.59 25.71C118.09 25.71 116.815 25.155 116.11 24.255ZM132.02 25.5L131.09 23.01H126.5L125.57 25.5H123.575L127.7 15H129.875L134.015 25.5H132.02ZM127.115 21.375H130.475L128.795 16.875L127.115 21.375ZM143.293 21.69C143.293 24.045 141.808 25.71 139.783 25.71C138.643 25.71 137.668 25.185 137.203 24.33V28.5H135.373V17.865H137.173V19.095C137.608 18.195 138.628 17.655 139.783 17.655C141.808 17.655 143.293 19.32 143.293 21.69ZM141.418 21.69C141.418 20.295 140.578 19.32 139.273 19.32C137.968 19.32 137.128 20.265 137.128 21.69C137.128 23.085 137.968 24.045 139.273 24.045C140.578 24.045 141.418 23.085 141.418 21.69ZM153.02 21.69C153.02 24.045 151.535 25.71 149.51 25.71C148.37 25.71 147.395 25.185 146.93 24.33V28.5H145.1V17.865H146.9V19.095C147.335 18.195 148.355 17.655 149.51 17.655C151.535 17.655 153.02 19.32 153.02 21.69ZM151.145 21.69C151.145 20.295 150.305 19.32 149 19.32C147.695 19.32 146.855 20.265 146.855 21.69C146.855 23.085 147.695 24.045 149 24.045C150.305 24.045 151.145 23.085 151.145 21.69ZM157.836 20.25C157.791 17.175 160.086 14.745 163.221 14.79C165.306 14.79 167.031 15.78 167.886 17.595L166.251 18.465C165.636 17.205 164.586 16.575 163.266 16.575C161.226 16.575 159.831 18.135 159.831 20.25C159.831 22.365 161.226 23.925 163.266 23.925C164.586 23.925 165.651 23.295 166.266 22.035L167.886 22.905C167.031 24.72 165.306 25.71 163.221 25.71C160.086 25.755 157.791 23.355 157.836 20.25ZM168.863 21.69C168.863 19.455 170.498 17.655 172.883 17.655C175.313 17.655 176.903 19.455 176.903 21.69C176.903 23.91 175.313 25.71 172.883 25.71C170.498 25.71 168.863 23.91 168.863 21.69ZM175.028 21.69C175.028 20.265 174.188 19.32 172.883 19.32C171.578 19.32 170.738 20.265 170.738 21.69C170.738 23.085 171.578 24.045 172.883 24.045C174.188 24.045 175.028 23.085 175.028 21.69ZM190.388 20.535V25.5H188.558V20.985C188.558 19.845 188.138 19.335 187.223 19.335C186.158 19.335 185.453 20.01 185.453 21.105V25.5H183.623V20.985C183.623 19.845 183.203 19.335 182.288 19.335C181.223 19.335 180.533 20.01 180.533 21.105V25.5H178.703V17.865H180.503V19.02C180.923 18.18 181.838 17.655 182.918 17.655C184.013 17.655 184.853 18.195 185.213 19.14C185.618 18.24 186.608 17.655 187.823 17.655C189.443 17.655 190.388 18.72 190.388 20.535ZM204.29 20.535V25.5H202.46V20.985C202.46 19.845 202.04 19.335 201.125 19.335C200.06 19.335 199.355 20.01 199.355 21.105V25.5H197.525V20.985C197.525 19.845 197.105 19.335 196.19 19.335C195.125 19.335 194.435 20.01 194.435 21.105V25.5H192.605V17.865H194.405V19.02C194.825 18.18 195.74 17.655 196.82 17.655C197.915 17.655 198.755 18.195 199.115 19.14C199.52 18.24 200.51 17.655 201.725 17.655C203.345 17.655 204.29 18.72 204.29 20.535ZM206.356 22.59V17.865H208.186V22.395C208.186 23.49 208.756 24.045 209.791 24.045C210.826 24.045 211.396 23.49 211.396 22.395V17.865H213.226V22.59C213.226 24.51 211.906 25.71 209.791 25.71C207.676 25.71 206.356 24.51 206.356 22.59ZM222.329 20.55V25.5H220.499V21.015C220.499 19.86 220.049 19.335 219.044 19.335C217.919 19.335 217.199 19.995 217.199 21.12V25.5H215.369V17.865H217.169V19.035C217.589 18.18 218.519 17.655 219.674 17.655C221.339 17.655 222.329 18.705 222.329 20.55ZM224.298 15.45C224.298 14.79 224.763 14.31 225.468 14.31C226.143 14.31 226.623 14.79 226.623 15.45C226.623 16.11 226.143 16.59 225.468 16.59C224.763 16.59 224.298 16.11 224.298 15.45ZM224.553 25.5V17.865H226.383V25.5H224.553ZM229.299 23.265V19.47H227.859V17.865H229.299V15.615H231.129V17.865H233.289V19.47H231.129V23.025C231.129 23.73 231.444 23.985 232.224 23.985C232.599 23.985 232.974 23.94 233.319 23.865V25.41C232.854 25.545 232.359 25.62 231.834 25.62C230.109 25.62 229.299 24.885 229.299 23.265ZM239.932 17.865H241.747V24.735C241.747 27.3 240.322 28.71 237.802 28.71C236.497 28.71 235.297 28.32 234.577 27.645L235.402 26.31C236.047 26.805 236.872 27.075 237.697 27.075C239.122 27.075 239.947 26.25 239.947 24.735V24.075C239.512 24.915 238.582 25.425 237.457 25.425C235.822 25.425 234.817 24.39 234.817 22.545V17.865H236.647V22.08C236.647 23.235 237.112 23.76 238.087 23.76C239.212 23.76 239.932 23.07 239.932 21.975V17.865Z" fill="white"/>
</svg>
