<svg width="40" height="40" viewBox="0 0 40 40" fill="none" xmlns="http://www.w3.org/2000/svg">
<rect width="40" height="40" rx="20" fill="#00AFFE"/>
<g clip-path="url(#clip0_5708_6139)">
<path d="M12.1128 14.472C11.8541 13.764 12.0488 12.98 12.6095 12.4754C13.1688 11.9727 13.9655 11.8594 14.6415 12.188L26.7015 17.8174C27.3481 18.12 27.8108 18.6727 27.9981 19.3327H14.6968L12.1508 14.5567C12.1368 14.5294 12.1241 14.5007 12.1128 14.472ZM14.7061 20.6667L12.2041 25.45C12.1901 25.4767 12.1781 25.5034 12.1681 25.5314C11.9101 26.24 12.1068 27.0227 12.6675 27.5267C13.0148 27.838 13.4535 27.9987 13.8948 27.9987C14.1675 27.9987 14.4408 27.9374 14.6955 27.8127L26.7028 22.1874C27.3515 21.8834 27.8135 21.3287 27.9995 20.6674H14.7061V20.6667Z" fill="white"/>
</g>
<defs>
<clipPath id="clip0_5708_6139">
<rect width="16" height="16" fill="white" transform="translate(12 12)"/>
</clipPath>
</defs>
</svg>
