<svg width="228" height="49" viewBox="0 0 228 49" fill="none" xmlns="http://www.w3.org/2000/svg">
<g filter="url(#filter0_d_13439_28436)">
<mask id="path-1-outside-1_13439_28436" maskUnits="userSpaceOnUse" x="0" y="0" width="228" height="43" fill="black">
<rect fill="white" width="228" height="43"/>
<path d="M25.1099 14.195C25.2199 13.645 25.2749 12.8933 25.2749 11.94C25.2749 11.39 25.2383 10.8583 25.1649 10.345C25.0916 9.795 24.9633 9.31833 24.7799 8.915C24.5966 8.475 24.3216 8.145 23.9549 7.925C23.5883 7.66833 23.1116 7.54 22.5249 7.54C21.8649 7.54 21.2599 7.68667 20.7099 7.98C20.1599 8.27333 19.6649 8.65833 19.2249 9.135C18.8216 9.575 18.4916 10.1067 18.2349 10.73C18.0149 11.3167 17.9049 11.94 17.9049 12.6C17.9049 13.5533 18.1433 14.2867 18.6199 14.8C19.1333 15.3133 19.7933 15.735 20.5999 16.065C21.4066 16.395 22.3233 16.67 23.3499 16.89C24.3766 17.11 25.4399 17.3667 26.5399 17.66C27.4566 17.9167 28.3733 18.2467 29.2899 18.65C30.2066 19.0533 31.0133 19.6033 31.7099 20.3C32.4433 20.96 33.0299 21.84 33.4699 22.94C33.9099 24.0033 34.1299 25.3417 34.1299 26.955C34.1299 29.265 33.6716 31.2083 32.7549 32.785C31.8383 34.3617 30.5733 35.645 28.9599 36.635C27.3466 37.625 25.4216 38.34 23.1849 38.78C20.9849 39.22 18.5833 39.44 15.9799 39.44C13.3399 39.44 11.1766 39.275 9.48994 38.945C7.83994 38.5783 6.53827 38.1933 5.58494 37.79C4.44827 37.3133 3.60494 36.7633 3.05494 36.14L4.92494 28.605H14.6049C14.5683 28.935 14.5316 29.3933 14.4949 29.98C14.4583 30.53 14.4399 30.97 14.4399 31.3C14.4399 31.74 14.4949 32.1983 14.6049 32.675C14.7149 33.1517 14.8799 33.5917 15.0999 33.995C15.3566 34.3983 15.7049 34.7283 16.1449 34.985C16.5849 35.2417 17.1349 35.37 17.7949 35.37C18.5283 35.37 19.1699 35.205 19.7199 34.875C20.3066 34.545 20.7833 34.1417 21.1499 33.665C21.5533 33.1517 21.8466 32.6017 22.0299 32.015C22.2499 31.3917 22.3599 30.7867 22.3599 30.2C22.3599 29.3933 22.1583 28.715 21.7549 28.165C21.3883 27.615 20.8749 27.1567 20.2149 26.79C19.5549 26.3867 18.7849 26.0567 17.9049 25.8C17.0616 25.5067 16.1816 25.2133 15.2649 24.92C14.3849 24.6633 13.4499 24.3517 12.4599 23.985C11.5066 23.6183 10.6266 23.105 9.81994 22.445C9.01327 21.785 8.33494 20.96 7.78494 19.97C7.27161 18.9433 7.01494 17.6417 7.01494 16.065C7.01494 13.7183 7.60161 11.7567 8.77494 10.18C9.98494 8.56667 11.4883 7.265 13.2849 6.275C15.1183 5.285 17.1166 4.58833 19.2799 4.185C21.4433 3.745 23.4966 3.525 25.4399 3.525C28.0066 3.525 30.2066 3.83666 32.0399 4.46C33.9099 5.04666 35.3216 5.74333 36.2749 6.55L34.2399 14.195H25.1099ZM66.2452 39H54.3652L57.6652 23.435H50.9002L47.6002 39H35.7202L43.1452 4.075H55.0802L51.8352 19.255H58.5452L61.7902 4.075H73.7802L66.2452 39ZM94.9561 3.525C98.1094 3.525 100.658 3.92833 102.601 4.735C104.581 5.54167 106.139 6.78833 107.276 8.475C108.009 9.61166 108.578 10.895 108.981 12.325C109.384 13.755 109.586 15.405 109.586 17.275C109.586 18.8883 109.439 20.5017 109.146 22.115C108.853 23.7283 108.431 25.2867 107.881 26.79C107.368 28.2567 106.726 29.65 105.956 30.97C105.223 32.2533 104.398 33.39 103.481 34.38C101.758 36.25 99.7594 37.57 97.4861 38.34C95.2494 39.0733 92.4811 39.44 89.1811 39.44C85.9911 39.44 83.4244 39.11 81.4811 38.45C79.5377 37.79 77.9977 36.7267 76.8611 35.26C76.0544 34.2333 75.4127 32.9317 74.9361 31.355C74.4961 29.7783 74.2761 27.7983 74.2761 25.415C74.2761 21.345 74.9911 17.715 76.4211 14.525C77.8877 11.2983 79.9594 8.75 82.6361 6.88C84.2494 5.74333 86.0461 4.9 88.0261 4.35C90.0061 3.8 92.3161 3.525 94.9561 3.525ZM88.7411 35.59C89.5844 35.59 90.3727 35.2233 91.1061 34.49C91.8761 33.72 92.5727 32.7117 93.1961 31.465C93.8561 30.1817 94.4427 28.7333 94.9561 27.12C95.5061 25.5067 95.9644 23.8383 96.3311 22.115C96.6977 20.3917 96.9727 18.6867 97.1561 17C97.3761 15.2767 97.4861 13.7183 97.4861 12.325C97.4861 10.4183 97.2844 9.11667 96.8811 8.42C96.5144 7.68666 95.9644 7.32 95.2311 7.32C94.3877 7.32 93.5811 7.68666 92.8111 8.42C92.0411 9.15333 91.3077 10.1433 90.6111 11.39C89.9511 12.6 89.3461 14.0117 88.7961 15.625C88.2827 17.2017 87.8244 18.8333 87.4211 20.52C87.0544 22.2067 86.7611 23.875 86.5411 25.525C86.3577 27.175 86.2661 28.6967 86.2661 30.09C86.2661 32.18 86.4861 33.6283 86.9261 34.435C87.4027 35.205 88.0077 35.59 88.7411 35.59ZM127.657 23.93C128.757 23.93 129.674 23.4717 130.407 22.555C131.177 21.6383 131.801 20.52 132.277 19.2C132.791 17.88 133.157 16.505 133.377 15.075C133.597 13.645 133.707 12.3983 133.707 11.335C133.707 10.345 133.542 9.52 133.212 8.86C132.882 8.16333 132.167 7.815 131.067 7.815H128.592L125.127 23.93H127.657ZM124.357 27.45L121.882 39H110.002L117.427 4.075H130.132C132.222 4.075 134.129 4.185 135.852 4.405C137.576 4.625 139.061 5.065 140.307 5.725C141.554 6.385 142.526 7.33833 143.222 8.585C143.919 9.795 144.267 11.4267 144.267 13.48C144.267 15.3867 143.956 17.2017 143.332 18.925C142.746 20.6117 141.774 22.0967 140.417 23.38C139.097 24.6267 137.374 25.6167 135.247 26.35C133.121 27.0833 130.536 27.45 127.492 27.45H124.357ZM160.636 23.93C161.736 23.93 162.653 23.4717 163.386 22.555C164.156 21.6383 164.779 20.52 165.256 19.2C165.769 17.88 166.136 16.505 166.356 15.075C166.576 13.645 166.686 12.3983 166.686 11.335C166.686 10.345 166.521 9.52 166.191 8.86C165.861 8.16333 165.146 7.815 164.046 7.815H161.571L158.106 23.93H160.636ZM157.336 27.45L154.861 39H142.981L150.406 4.075H163.111C165.201 4.075 167.108 4.185 168.831 4.405C170.554 4.625 172.039 5.065 173.286 5.725C174.533 6.385 175.504 7.33833 176.201 8.585C176.898 9.795 177.246 11.4267 177.246 13.48C177.246 15.3867 176.934 17.2017 176.311 18.925C175.724 20.6117 174.753 22.0967 173.396 23.38C172.076 24.6267 170.353 25.6167 168.226 26.35C166.099 27.0833 163.514 27.45 160.471 27.45H157.336ZM187.839 39H175.959L183.384 4.075H195.319L187.839 39ZM201.324 4.075H224.479L223.599 8.255H212.379L210.069 18.87H219.474L218.594 22.995H209.189L206.659 34.765H217.879L217.054 39H193.899L201.324 4.075Z"/>
</mask>
<path d="M25.1099 14.195C25.2199 13.645 25.2749 12.8933 25.2749 11.94C25.2749 11.39 25.2383 10.8583 25.1649 10.345C25.0916 9.795 24.9633 9.31833 24.7799 8.915C24.5966 8.475 24.3216 8.145 23.9549 7.925C23.5883 7.66833 23.1116 7.54 22.5249 7.54C21.8649 7.54 21.2599 7.68667 20.7099 7.98C20.1599 8.27333 19.6649 8.65833 19.2249 9.135C18.8216 9.575 18.4916 10.1067 18.2349 10.73C18.0149 11.3167 17.9049 11.94 17.9049 12.6C17.9049 13.5533 18.1433 14.2867 18.6199 14.8C19.1333 15.3133 19.7933 15.735 20.5999 16.065C21.4066 16.395 22.3233 16.67 23.3499 16.89C24.3766 17.11 25.4399 17.3667 26.5399 17.66C27.4566 17.9167 28.3733 18.2467 29.2899 18.65C30.2066 19.0533 31.0133 19.6033 31.7099 20.3C32.4433 20.96 33.0299 21.84 33.4699 22.94C33.9099 24.0033 34.1299 25.3417 34.1299 26.955C34.1299 29.265 33.6716 31.2083 32.7549 32.785C31.8383 34.3617 30.5733 35.645 28.9599 36.635C27.3466 37.625 25.4216 38.34 23.1849 38.78C20.9849 39.22 18.5833 39.44 15.9799 39.44C13.3399 39.44 11.1766 39.275 9.48994 38.945C7.83994 38.5783 6.53827 38.1933 5.58494 37.79C4.44827 37.3133 3.60494 36.7633 3.05494 36.14L4.92494 28.605H14.6049C14.5683 28.935 14.5316 29.3933 14.4949 29.98C14.4583 30.53 14.4399 30.97 14.4399 31.3C14.4399 31.74 14.4949 32.1983 14.6049 32.675C14.7149 33.1517 14.8799 33.5917 15.0999 33.995C15.3566 34.3983 15.7049 34.7283 16.1449 34.985C16.5849 35.2417 17.1349 35.37 17.7949 35.37C18.5283 35.37 19.1699 35.205 19.7199 34.875C20.3066 34.545 20.7833 34.1417 21.1499 33.665C21.5533 33.1517 21.8466 32.6017 22.0299 32.015C22.2499 31.3917 22.3599 30.7867 22.3599 30.2C22.3599 29.3933 22.1583 28.715 21.7549 28.165C21.3883 27.615 20.8749 27.1567 20.2149 26.79C19.5549 26.3867 18.7849 26.0567 17.9049 25.8C17.0616 25.5067 16.1816 25.2133 15.2649 24.92C14.3849 24.6633 13.4499 24.3517 12.4599 23.985C11.5066 23.6183 10.6266 23.105 9.81994 22.445C9.01327 21.785 8.33494 20.96 7.78494 19.97C7.27161 18.9433 7.01494 17.6417 7.01494 16.065C7.01494 13.7183 7.60161 11.7567 8.77494 10.18C9.98494 8.56667 11.4883 7.265 13.2849 6.275C15.1183 5.285 17.1166 4.58833 19.2799 4.185C21.4433 3.745 23.4966 3.525 25.4399 3.525C28.0066 3.525 30.2066 3.83666 32.0399 4.46C33.9099 5.04666 35.3216 5.74333 36.2749 6.55L34.2399 14.195H25.1099ZM66.2452 39H54.3652L57.6652 23.435H50.9002L47.6002 39H35.7202L43.1452 4.075H55.0802L51.8352 19.255H58.5452L61.7902 4.075H73.7802L66.2452 39ZM94.9561 3.525C98.1094 3.525 100.658 3.92833 102.601 4.735C104.581 5.54167 106.139 6.78833 107.276 8.475C108.009 9.61166 108.578 10.895 108.981 12.325C109.384 13.755 109.586 15.405 109.586 17.275C109.586 18.8883 109.439 20.5017 109.146 22.115C108.853 23.7283 108.431 25.2867 107.881 26.79C107.368 28.2567 106.726 29.65 105.956 30.97C105.223 32.2533 104.398 33.39 103.481 34.38C101.758 36.25 99.7594 37.57 97.4861 38.34C95.2494 39.0733 92.4811 39.44 89.1811 39.44C85.9911 39.44 83.4244 39.11 81.4811 38.45C79.5377 37.79 77.9977 36.7267 76.8611 35.26C76.0544 34.2333 75.4127 32.9317 74.9361 31.355C74.4961 29.7783 74.2761 27.7983 74.2761 25.415C74.2761 21.345 74.9911 17.715 76.4211 14.525C77.8877 11.2983 79.9594 8.75 82.6361 6.88C84.2494 5.74333 86.0461 4.9 88.0261 4.35C90.0061 3.8 92.3161 3.525 94.9561 3.525ZM88.7411 35.59C89.5844 35.59 90.3727 35.2233 91.1061 34.49C91.8761 33.72 92.5727 32.7117 93.1961 31.465C93.8561 30.1817 94.4427 28.7333 94.9561 27.12C95.5061 25.5067 95.9644 23.8383 96.3311 22.115C96.6977 20.3917 96.9727 18.6867 97.1561 17C97.3761 15.2767 97.4861 13.7183 97.4861 12.325C97.4861 10.4183 97.2844 9.11667 96.8811 8.42C96.5144 7.68666 95.9644 7.32 95.2311 7.32C94.3877 7.32 93.5811 7.68666 92.8111 8.42C92.0411 9.15333 91.3077 10.1433 90.6111 11.39C89.9511 12.6 89.3461 14.0117 88.7961 15.625C88.2827 17.2017 87.8244 18.8333 87.4211 20.52C87.0544 22.2067 86.7611 23.875 86.5411 25.525C86.3577 27.175 86.2661 28.6967 86.2661 30.09C86.2661 32.18 86.4861 33.6283 86.9261 34.435C87.4027 35.205 88.0077 35.59 88.7411 35.59ZM127.657 23.93C128.757 23.93 129.674 23.4717 130.407 22.555C131.177 21.6383 131.801 20.52 132.277 19.2C132.791 17.88 133.157 16.505 133.377 15.075C133.597 13.645 133.707 12.3983 133.707 11.335C133.707 10.345 133.542 9.52 133.212 8.86C132.882 8.16333 132.167 7.815 131.067 7.815H128.592L125.127 23.93H127.657ZM124.357 27.45L121.882 39H110.002L117.427 4.075H130.132C132.222 4.075 134.129 4.185 135.852 4.405C137.576 4.625 139.061 5.065 140.307 5.725C141.554 6.385 142.526 7.33833 143.222 8.585C143.919 9.795 144.267 11.4267 144.267 13.48C144.267 15.3867 143.956 17.2017 143.332 18.925C142.746 20.6117 141.774 22.0967 140.417 23.38C139.097 24.6267 137.374 25.6167 135.247 26.35C133.121 27.0833 130.536 27.45 127.492 27.45H124.357ZM160.636 23.93C161.736 23.93 162.653 23.4717 163.386 22.555C164.156 21.6383 164.779 20.52 165.256 19.2C165.769 17.88 166.136 16.505 166.356 15.075C166.576 13.645 166.686 12.3983 166.686 11.335C166.686 10.345 166.521 9.52 166.191 8.86C165.861 8.16333 165.146 7.815 164.046 7.815H161.571L158.106 23.93H160.636ZM157.336 27.45L154.861 39H142.981L150.406 4.075H163.111C165.201 4.075 167.108 4.185 168.831 4.405C170.554 4.625 172.039 5.065 173.286 5.725C174.533 6.385 175.504 7.33833 176.201 8.585C176.898 9.795 177.246 11.4267 177.246 13.48C177.246 15.3867 176.934 17.2017 176.311 18.925C175.724 20.6117 174.753 22.0967 173.396 23.38C172.076 24.6267 170.353 25.6167 168.226 26.35C166.099 27.0833 163.514 27.45 160.471 27.45H157.336ZM187.839 39H175.959L183.384 4.075H195.319L187.839 39ZM201.324 4.075H224.479L223.599 8.255H212.379L210.069 18.87H219.474L218.594 22.995H209.189L206.659 34.765H217.879L217.054 39H193.899L201.324 4.075Z" fill="white"/>
<path d="M25.1099 14.195L22.5021 13.6734L21.8658 16.8545H25.1099V14.195ZM25.1649 10.345L22.5287 10.6965L22.5304 10.7088L22.5321 10.7211L25.1649 10.345ZM24.7799 8.915L22.325 9.93789L22.3413 9.97697L22.3588 10.0155L24.7799 8.915ZM23.9549 7.925L22.4298 10.1038L22.5064 10.1574L22.5866 10.2055L23.9549 7.925ZM20.7099 7.98L21.9615 10.3266L21.9615 10.3266L20.7099 7.98ZM19.2249 9.135L17.2707 7.33108L17.2645 7.33789L19.2249 9.135ZM18.2349 10.73L15.7757 9.71739L15.7596 9.75653L15.7448 9.79618L18.2349 10.73ZM18.6199 14.8L16.6711 16.6097L16.7046 16.6458L16.7394 16.6806L18.6199 14.8ZM20.5999 16.065L19.593 18.5265L19.593 18.5265L20.5999 16.065ZM23.3499 16.89L22.7927 19.4905L22.7927 19.4905L23.3499 16.89ZM26.5399 17.66L27.257 15.099L27.2411 15.0945L27.2252 15.0903L26.5399 17.66ZM29.2899 18.65L28.2188 21.0843L28.2189 21.0843L29.2899 18.65ZM31.7099 20.3L29.8294 22.1806L29.8788 22.23L29.9308 22.2768L31.7099 20.3ZM33.4699 22.94L31.0006 23.9277L31.0065 23.9423L31.0125 23.9569L33.4699 22.94ZM32.7549 32.785L35.0541 34.1217L35.0541 34.1217L32.7549 32.785ZM28.9599 36.635L27.569 34.3682L27.569 34.3682L28.9599 36.635ZM23.1849 38.78L22.6716 36.1705L22.6634 36.1721L23.1849 38.78ZM9.48994 38.945L8.91301 41.5412L8.94606 41.5485L8.97928 41.555L9.48994 38.945ZM5.58494 37.79L6.6212 35.3407L6.61345 35.3374L5.58494 37.79ZM3.05494 36.14L0.473718 35.4994L0.137673 36.8535L1.06073 37.8996L3.05494 36.14ZM4.92494 28.605V25.9455H2.84477L2.34372 27.9644L4.92494 28.605ZM14.6049 28.605L17.2482 28.8987L17.5763 25.9455H14.6049V28.605ZM14.4949 29.98L17.1486 30.1569L17.1493 30.1459L14.4949 29.98ZM14.6049 32.675L12.0135 33.273L12.0135 33.273L14.6049 32.675ZM15.0999 33.995L12.7652 35.2685L12.8081 35.3472L12.8562 35.4228L15.0999 33.995ZM16.1449 34.985L14.8049 37.2822L14.8049 37.2822L16.1449 34.985ZM19.7199 34.875L18.4161 32.557L18.3836 32.5753L18.3516 32.5945L19.7199 34.875ZM21.1499 33.665L19.0587 32.0219L19.0503 32.0326L19.0419 32.0435L21.1499 33.665ZM22.0299 32.015L19.522 31.1299L19.5059 31.1755L19.4915 31.2217L22.0299 32.015ZM21.7549 28.165L19.5421 29.6402L19.5751 29.6898L19.6103 29.7377L21.7549 28.165ZM20.2149 26.79L18.8281 29.0593L18.8752 29.0881L18.9234 29.1148L20.2149 26.79ZM17.9049 25.8L17.0312 28.3119L17.0952 28.3342L17.1603 28.3531L17.9049 25.8ZM15.2649 24.92L16.0755 22.387L16.0427 22.3765L16.0096 22.3669L15.2649 24.92ZM12.4599 23.985L11.5052 26.4673L11.5207 26.4732L11.5363 26.479L12.4599 23.985ZM9.81994 22.445L11.5041 20.3866L11.5041 20.3866L9.81994 22.445ZM7.78494 19.97L5.40619 21.1594L5.43203 21.2111L5.4601 21.2616L7.78494 19.97ZM8.77494 10.18L6.64731 8.58427L6.64138 8.59223L8.77494 10.18ZM13.2849 6.275L12.0213 3.93487L12.0113 3.94023L12.0014 3.94568L13.2849 6.275ZM19.2799 4.185L19.7674 6.79947L19.7887 6.79549L19.81 6.79117L19.2799 4.185ZM32.0399 4.46L31.1838 6.97796L31.2137 6.98813L31.2438 6.99758L32.0399 4.46ZM36.2749 6.55L38.845 7.23411L39.278 5.60722L37.9928 4.51975L36.2749 6.55ZM34.2399 14.195V16.8545H36.2841L36.81 14.8791L34.2399 14.195ZM27.7178 14.7166C27.8778 13.9168 27.9345 12.9652 27.9345 11.94H22.6154C22.6154 12.8215 22.5621 13.3732 22.5021 13.6734L27.7178 14.7166ZM27.9345 11.94C27.9345 11.2717 27.8899 10.6141 27.7977 9.96888L22.5321 10.7211C22.5866 11.1026 22.6154 11.5083 22.6154 11.94H27.9345ZM27.8011 9.9935C27.7016 9.24689 27.5157 8.50669 27.2011 7.81448L22.3588 10.0155C22.4108 10.13 22.4816 10.3431 22.5287 10.6965L27.8011 9.9935ZM27.2349 7.8921C26.8593 6.99073 26.2328 6.19017 25.3233 5.64447L22.5866 10.2055C22.513 10.1614 22.4456 10.1031 22.3931 10.0401C22.3425 9.97935 22.3247 9.93713 22.325 9.93789L27.2349 7.8921ZM25.4801 5.74623C24.5461 5.09241 23.4892 4.88047 22.5249 4.88047V10.1995C22.6273 10.1995 22.6558 10.211 22.631 10.2043C22.6016 10.1964 22.5244 10.17 22.4298 10.1038L25.4801 5.74623ZM22.5249 4.88047C21.4549 4.88047 20.4163 5.12249 19.4584 5.63336L21.9615 10.3266C22.1036 10.2508 22.275 10.1995 22.5249 10.1995V4.88047ZM19.4584 5.63336C18.6348 6.07261 17.9046 6.64443 17.2707 7.33109L21.1792 10.9389C21.4253 10.6722 21.6851 10.4741 21.9615 10.3266L19.4584 5.63336ZM17.2645 7.33789C16.6247 8.03584 16.1361 8.84231 15.7757 9.71739L20.6941 11.7426C20.8472 11.371 21.0185 11.1142 21.1854 10.9321L17.2645 7.33789ZM15.7448 9.79618C15.4069 10.6971 15.2454 11.6383 15.2454 12.6H20.5645C20.5645 12.2417 20.623 11.9362 20.7251 11.6638L15.7448 9.79618ZM15.2454 12.6C15.2454 13.9789 15.5941 15.4499 16.6711 16.6097L20.5688 12.9903C20.6189 13.0443 20.6249 13.0796 20.613 13.043C20.5977 12.9959 20.5645 12.8608 20.5645 12.6H15.2454ZM16.7394 16.6806C17.5472 17.4884 18.5236 18.089 19.593 18.5265L21.6069 13.6035C21.063 13.381 20.7194 13.1383 20.5005 12.9194L16.7394 16.6806ZM19.593 18.5265C20.5711 18.9266 21.6424 19.244 22.7927 19.4905L23.9072 14.2895C23.0042 14.096 22.2422 13.8634 21.6069 13.6035L19.593 18.5265ZM22.7927 19.4905C23.773 19.7006 24.7936 19.9468 25.8547 20.2297L27.2252 15.0903C26.0863 14.7866 24.9802 14.5194 23.9072 14.2895L22.7927 19.4905ZM25.8229 20.221C26.6126 20.4422 27.4111 20.7289 28.2188 21.0843L30.361 16.2157C29.3354 15.7644 28.3006 15.3912 27.257 15.099L25.8229 20.221ZM28.2189 21.0843C28.8388 21.3571 29.3698 21.721 29.8294 22.1806L33.5905 18.4194C32.6568 17.4857 31.5744 16.7496 30.361 16.2157L28.2189 21.0843ZM29.9308 22.2768C30.3065 22.6149 30.6819 23.1308 31.0006 23.9277L35.9392 21.9523C35.378 20.5492 34.58 19.3051 33.4891 18.3232L29.9308 22.2768ZM31.0125 23.9569C31.277 24.596 31.4704 25.5604 31.4704 26.955H36.7895C36.7895 25.123 36.5429 23.4106 35.9274 21.9231L31.0125 23.9569ZM31.4704 26.955C31.4704 28.9187 31.0814 30.3723 30.4558 31.4483L35.0541 34.1217C36.2619 32.0444 36.7895 29.6113 36.7895 26.955H31.4704ZM30.4558 31.4483C29.7688 32.6299 28.822 33.5993 27.569 34.3682L30.3509 38.9018C32.3245 37.6907 33.9078 36.0934 35.0541 34.1217L30.4558 31.4483ZM27.569 34.3682C26.2743 35.1627 24.6593 35.7795 22.6716 36.1705L23.6983 41.3895C26.1839 40.9005 28.4189 40.0873 30.3509 38.9018L27.569 34.3682ZM22.6634 36.1721C20.6598 36.5728 18.4353 36.7805 15.9799 36.7805V42.0995C18.7312 42.0995 21.3101 41.8672 23.7065 41.3879L22.6634 36.1721ZM15.9799 36.7805C13.4307 36.7805 11.455 36.6195 10.0006 36.335L8.97928 41.555C10.8982 41.9305 13.2492 42.0995 15.9799 42.0995V36.7805ZM10.0669 36.3488C8.48893 35.9982 7.36307 35.6545 6.6212 35.3407L4.54868 40.2393C5.71348 40.7321 7.19095 41.1585 8.91301 41.5412L10.0669 36.3488ZM6.61345 35.3374C5.68293 34.9472 5.23688 34.5932 5.04915 34.3804L1.06073 37.8996C1.973 38.9335 3.21362 39.6795 4.55643 40.2426L6.61345 35.3374ZM5.63616 36.7806L7.50616 29.2456L2.34372 27.9644L0.473718 35.4994L5.63616 36.7806ZM4.92494 31.2645H14.6049V25.9455H4.92494V31.2645ZM11.9617 28.3113C11.918 28.7042 11.8782 29.2118 11.8406 29.8141L17.1493 30.1459C17.185 29.5749 17.2185 29.1658 17.2482 28.8987L11.9617 28.3113ZM11.8413 29.8031C11.8029 30.3787 11.7804 30.885 11.7804 31.3H17.0995C17.0995 31.055 17.1136 30.6813 17.1486 30.1569L11.8413 29.8031ZM11.7804 31.3C11.7804 31.9622 11.8632 32.6218 12.0135 33.273L17.1964 32.077C17.1267 31.7749 17.0995 31.5178 17.0995 31.3H11.7804ZM12.0135 33.273C12.1744 33.9702 12.422 34.6394 12.7652 35.2685L17.4347 32.7215C17.3379 32.5439 17.2555 32.3331 17.1964 32.077L12.0135 33.273ZM12.8562 35.4228C13.3553 36.2072 14.0233 36.8263 14.8049 37.2822L17.485 32.6878C17.3866 32.6304 17.3579 32.5895 17.3437 32.5672L12.8562 35.4228ZM14.8049 37.2822C15.7549 37.8364 16.8001 38.0295 17.7949 38.0295V32.7105C17.4698 32.7105 17.415 32.6469 17.485 32.6878L14.8049 37.2822ZM17.7949 38.0295C18.9399 38.0295 20.0684 37.7674 21.0883 37.1555L18.3516 32.5945C18.2714 32.6426 18.1167 32.7105 17.7949 32.7105V38.0295ZM21.0238 37.193C21.8854 36.7083 22.6482 36.0792 23.2579 35.2865L19.0419 32.0435C18.9183 32.2042 18.7278 32.3817 18.4161 32.557L21.0238 37.193ZM23.2412 35.3081C23.8314 34.5569 24.2829 33.7218 24.5684 32.8083L19.4915 31.2217C19.4103 31.4816 19.2751 31.7464 19.0587 32.0219L23.2412 35.3081ZM24.5379 32.9001C24.8456 32.0281 25.0195 31.1238 25.0195 30.2H19.7004C19.7004 30.4495 19.6543 30.7552 19.522 31.1299L24.5379 32.9001ZM25.0195 30.2C25.0195 28.9342 24.6954 27.6774 23.8996 26.5923L19.6103 29.7377C19.6212 29.7526 19.7004 29.8525 19.7004 30.2H25.0195ZM23.9678 26.6898C23.3346 25.74 22.4839 25.0081 21.5065 24.4652L18.9234 29.1148C19.266 29.3052 19.4419 29.49 19.5421 29.6402L23.9678 26.6898ZM21.6018 24.5207C20.7082 23.9746 19.7149 23.5576 18.6496 23.2469L17.1603 28.3531C17.855 28.5558 18.4017 28.7987 18.8281 29.0593L21.6018 24.5207ZM18.7787 23.2881C17.9128 22.9869 17.0117 22.6866 16.0755 22.387L14.4544 27.453C15.3515 27.7401 16.2104 28.0264 17.0312 28.3119L18.7787 23.2881ZM16.0096 22.3669C15.1982 22.1302 14.3233 21.8391 13.3836 21.491L11.5363 26.479C12.5766 26.8643 13.5717 27.1965 14.5203 27.4731L16.0096 22.3669ZM13.4147 21.5027C12.7309 21.2397 12.0962 20.8711 11.5041 20.3866L8.13583 24.5034C9.15699 25.3389 10.2823 25.9969 11.5052 26.4673L13.4147 21.5027ZM11.5041 20.3866C10.9792 19.9572 10.5108 19.4002 10.1098 18.6784L5.4601 21.2616C6.1591 22.5198 7.04734 23.6128 8.13583 24.5034L11.5041 20.3866ZM10.1637 18.7806C9.89075 18.2347 9.67447 17.3747 9.67447 16.065H4.35542C4.35542 17.9086 4.65247 19.6519 5.40619 21.1594L10.1637 18.7806ZM9.67447 16.065C9.67447 14.1762 10.1391 12.8016 10.9085 11.7678L6.64138 8.59223C5.06411 10.7117 4.35542 13.2605 4.35542 16.065H9.67447ZM10.9026 11.7757C11.8824 10.4693 13.0961 9.4156 14.5684 8.60431L12.0014 3.94568C9.88044 5.1144 8.0875 6.66405 6.64732 8.58428L10.9026 11.7757ZM14.5486 8.61513C16.1257 7.76351 17.8602 7.15506 19.7674 6.79947L18.7925 1.57053C16.3731 2.02161 14.1109 2.80648 12.0213 3.93487L14.5486 8.61513ZM19.81 6.79117C21.822 6.38195 23.6968 6.18452 25.4399 6.18452V0.865472C23.2965 0.865472 21.0646 1.10805 18.7499 1.57883L19.81 6.79117ZM25.4399 6.18452C27.8044 6.18452 29.6994 6.47326 31.1838 6.97796L32.8961 1.94203C30.7138 1.20007 28.2088 0.865472 25.4399 0.865472V6.18452ZM31.2438 6.99758C32.9471 7.53194 33.9838 8.09522 34.557 8.58024L37.9928 4.51975C36.6594 3.39144 34.8728 2.56139 32.836 1.92242L31.2438 6.99758ZM33.7049 5.86589L31.6699 13.5109L36.81 14.8791L38.845 7.23411L33.7049 5.86589ZM34.2399 11.5355H25.1099V16.8545H34.2399V11.5355ZM66.2452 39V41.6595H68.3921L68.8449 39.5609L66.2452 39ZM54.3652 39L51.7635 38.4484L51.0827 41.6595H54.3652V39ZM57.6652 23.435L60.2669 23.9866L60.9477 20.7755H57.6652V23.435ZM50.9002 23.435V20.7755H48.7454L48.2985 22.8834L50.9002 23.435ZM47.6002 39V41.6595H49.755L50.2019 39.5516L47.6002 39ZM35.7202 39L33.1188 38.4469L32.4358 41.6595H35.7202V39ZM43.1452 4.075V1.41547H40.9917L40.5438 3.52195L43.1452 4.075ZM55.0802 4.075L57.681 4.63096L58.3684 1.41547H55.0802V4.075ZM51.8352 19.255L49.2344 18.699L48.5471 21.9145H51.8352V19.255ZM58.5452 19.255V21.9145H60.6963L61.146 19.811L58.5452 19.255ZM61.7902 4.075V1.41547H59.6391L59.1895 3.51904L61.7902 4.075ZM73.7802 4.075L76.3799 4.63588L77.0747 1.41547H73.7802V4.075ZM66.2452 36.3405H54.3652V41.6595H66.2452V36.3405ZM56.9669 39.5516L60.2669 23.9866L55.0635 22.8834L51.7635 38.4484L56.9669 39.5516ZM57.6652 20.7755H50.9002V26.0945H57.6652V20.7755ZM48.2985 22.8834L44.9985 38.4484L50.2019 39.5516L53.5019 23.9866L48.2985 22.8834ZM47.6002 36.3405H35.7202V41.6595H47.6002V36.3405ZM38.3216 39.5531L45.7466 4.62805L40.5438 3.52195L33.1188 38.4469L38.3216 39.5531ZM43.1452 6.73452H55.0802V1.41547H43.1452V6.73452ZM52.4795 3.51904L49.2344 18.699L54.436 19.811L57.681 4.63096L52.4795 3.51904ZM51.8352 21.9145H58.5452V16.5955H51.8352V21.9145ZM61.146 19.811L64.391 4.63096L59.1895 3.51904L55.9445 18.699L61.146 19.811ZM61.7902 6.73452H73.7802V1.41547H61.7902V6.73452ZM71.1805 3.51412L63.6455 38.4391L68.8449 39.5609L76.3799 4.63588L71.1805 3.51412ZM102.601 4.735L101.581 7.19131L101.59 7.19467L101.598 7.19796L102.601 4.735ZM107.276 8.475L109.511 7.0332L109.496 7.01081L109.482 6.98871L107.276 8.475ZM108.981 12.325L106.421 13.047L106.421 13.047L108.981 12.325ZM107.881 26.79L105.383 25.8762L105.377 25.8938L105.371 25.9114L107.881 26.79ZM105.956 30.97L103.659 29.6299L103.653 29.6402L103.647 29.6505L105.956 30.97ZM103.481 34.38L101.53 32.5731L101.525 32.5777L103.481 34.38ZM97.4861 38.34L98.3147 40.8672L98.327 40.8631L98.3393 40.859L97.4861 38.34ZM81.4811 38.45L82.3363 35.9317L81.4811 38.45ZM76.8611 35.26L78.9632 33.6308L78.9578 33.6239L78.9523 33.6169L76.8611 35.26ZM74.9361 31.355L72.3744 32.0699L72.3821 32.0973L72.3903 32.1246L74.9361 31.355ZM76.4211 14.525L73.9999 13.4245L73.9942 13.4371L76.4211 14.525ZM82.6361 6.88L84.1592 9.06018L84.1678 9.05411L82.6361 6.88ZM88.0261 4.35L87.3143 1.7875L87.3143 1.7875L88.0261 4.35ZM91.1061 34.49L92.9866 36.3706L92.9866 36.3706L91.1061 34.49ZM93.1961 31.465L90.831 30.2487L90.8241 30.2621L90.8173 30.2756L93.1961 31.465ZM94.9561 27.12L92.4388 26.2618L92.43 26.2876L92.4217 26.3136L94.9561 27.12ZM97.1561 17L94.518 16.6632L94.5148 16.6879L94.5121 16.7126L97.1561 17ZM96.8811 8.42L94.5023 9.60937L94.5387 9.68212L94.5795 9.75251L96.8811 8.42ZM92.8111 8.42L90.9769 6.49413L90.9769 6.49414L92.8111 8.42ZM90.6111 11.39L88.2895 10.0926L88.2828 10.1045L88.2763 10.1165L90.6111 11.39ZM88.7961 15.625L86.2788 14.7668L86.2729 14.7842L86.2672 14.8016L88.7961 15.625ZM87.4211 20.52L84.8345 19.9015L84.8281 19.9282L84.8223 19.955L87.4211 20.52ZM86.5411 25.525L83.9049 25.1735L83.901 25.2024L83.8978 25.2313L86.5411 25.525ZM86.9261 34.435L84.5913 35.7085L84.6263 35.7727L84.6648 35.8349L86.9261 34.435ZM94.9561 6.18452C97.9175 6.18452 100.081 6.5684 101.581 7.19131L103.621 2.27868C101.235 1.28826 98.3013 0.865472 94.9561 0.865472V6.18452ZM101.598 7.19796C103.115 7.81629 104.244 8.73527 105.071 9.96129L109.482 6.98871C108.034 4.84139 106.047 3.26705 103.605 2.27203L101.598 7.19796ZM105.041 9.9168C105.618 10.8103 106.083 11.8469 106.421 13.047L111.541 11.603C111.073 9.94313 110.401 8.41302 109.511 7.0332L105.041 9.9168ZM106.421 13.047C106.744 14.1906 106.927 15.5892 106.927 17.275H112.246C112.246 15.2208 112.025 13.3194 111.541 11.603L106.421 13.047ZM106.927 17.275C106.927 18.7262 106.795 20.1803 106.529 21.6392L111.763 22.5908C112.084 20.823 112.246 19.0505 112.246 17.275H106.927ZM106.529 21.6392C106.263 23.1071 105.88 24.5187 105.383 25.8762L110.379 27.7038C110.982 26.0547 111.443 24.3496 111.763 22.5908L106.529 21.6392ZM105.371 25.9114C104.913 27.2205 104.342 28.4591 103.659 29.6299L108.253 32.3101C109.11 30.8409 109.823 29.2928 110.391 27.6686L105.371 25.9114ZM103.647 29.6505C103.004 30.7748 102.297 31.7448 101.53 32.5731L105.433 36.1869C106.499 35.0352 107.441 33.7318 108.265 32.2895L103.647 29.6505ZM101.525 32.5777C100.085 34.1404 98.4593 35.2024 96.6329 35.821L98.3393 40.859C101.059 39.9376 103.43 38.3596 105.437 36.1823L101.525 32.5777ZM96.6575 35.8128C94.7718 36.4311 92.3036 36.7805 89.1811 36.7805V42.0995C92.6585 42.0995 95.727 41.7156 98.3147 40.8672L96.6575 35.8128ZM89.1811 36.7805C86.1393 36.7805 83.8955 36.4613 82.3363 35.9317L80.6258 40.9683C82.9533 41.7587 85.8429 42.0995 89.1811 42.0995V36.7805ZM82.3363 35.9317C80.8324 35.421 79.7469 34.6421 78.9632 33.6308L74.7589 36.8891C76.2485 38.8112 78.2431 40.159 80.6258 40.9683L82.3363 35.9317ZM78.9523 33.6169C78.3959 32.9088 77.8867 31.9247 77.4818 30.5854L72.3903 32.1246C72.9388 33.9386 73.7129 35.5579 74.7698 36.9031L78.9523 33.6169ZM77.4977 30.6401C77.1448 29.3757 76.9356 27.6561 76.9356 25.415H71.6165C71.6165 27.9406 71.8473 30.181 72.3744 32.0699L77.4977 30.6401ZM76.9356 25.415C76.9356 21.6589 77.5945 18.4091 78.8479 15.6129L73.9942 13.4371C72.3877 17.0209 71.6165 21.0311 71.6165 25.415H76.9356ZM78.8422 15.6255C80.1291 12.7944 81.9063 10.6341 84.1592 9.06017L81.1129 4.69983C78.0125 6.8659 75.6464 9.8023 73.9999 13.4245L78.8422 15.6255ZM84.1678 9.05411C85.5219 8.1001 87.0392 7.38436 88.7379 6.9125L87.3143 1.7875C85.053 2.41564 82.9769 3.38657 81.1043 4.70588L84.1678 9.05411ZM88.7379 6.9125C90.4312 6.44214 92.4921 6.18452 94.9561 6.18452V0.865472C92.1401 0.865472 89.581 1.15786 87.3143 1.7875L88.7379 6.9125ZM88.7411 38.2495C90.445 38.2495 91.8762 37.481 92.9866 36.3706L89.2255 32.6094C89.0375 32.7974 88.9068 32.874 88.8432 32.9036C88.7892 32.9287 88.7631 32.9305 88.7411 32.9305V38.2495ZM92.9866 36.3706C94.0063 35.3509 94.8576 34.0888 95.5748 32.6544L90.8173 30.2756C90.2879 31.3346 89.7459 32.0891 89.2255 32.6094L92.9866 36.3706ZM95.5612 32.6813C96.2993 31.246 96.9396 29.6573 97.4904 27.9264L92.4217 26.3136C91.9458 27.8093 91.4128 29.1173 90.831 30.2487L95.5612 32.6813ZM97.4733 27.9782C98.0585 26.2617 98.5445 24.4915 98.9324 22.6685L93.7298 21.5615C93.3843 23.1852 92.9537 24.7516 92.4388 26.2618L97.4733 27.9782ZM98.9324 22.6685C99.317 20.8606 99.6066 19.0668 99.8 17.2874L94.5121 16.7126C94.3389 18.3066 94.0785 19.9228 93.7298 21.5615L98.9324 22.6685ZM99.7942 17.3368C100.025 15.5277 100.146 13.8544 100.146 12.325H94.8265C94.8265 13.5823 94.727 15.0256 94.518 16.6632L99.7942 17.3368ZM100.146 12.325C100.146 11.29 100.092 10.3421 99.963 9.51157C99.8397 8.71552 99.6216 7.8456 99.1827 7.08748L94.5795 9.75251C94.5439 9.69106 94.6283 9.82031 94.7067 10.3259C94.7797 10.7971 94.8265 11.4533 94.8265 12.325H100.146ZM99.2598 7.23062C98.9187 6.54845 98.4112 5.87705 97.6688 5.38214C96.9098 4.87612 96.0631 4.66047 95.2311 4.66047V9.97952C95.1324 9.97952 94.9274 9.9472 94.7183 9.80786C94.526 9.67961 94.4767 9.55821 94.5023 9.60937L99.2598 7.23062ZM95.2311 4.66047C93.5389 4.66047 92.1066 5.41827 90.9769 6.49413L94.6452 10.3459C94.8568 10.1443 95.0092 10.0547 95.0941 10.0161C95.1697 9.98177 95.2082 9.97952 95.2311 9.97952V4.66047ZM90.9769 6.49414C89.9606 7.46209 89.0746 8.68759 88.2895 10.0926L92.9327 12.6874C93.5409 11.5991 94.1216 10.8446 94.6452 10.3459L90.9769 6.49414ZM88.2763 10.1165C87.5291 11.4863 86.8667 13.0422 86.2788 14.7668L91.3133 16.4832C91.8254 14.9811 92.373 13.7137 92.9459 12.6635L88.2763 10.1165ZM86.2672 14.8016C85.7309 16.4488 85.2536 18.1489 84.8345 19.9015L90.0077 21.1385C90.3953 19.5177 90.8346 17.9545 91.3249 16.4484L86.2672 14.8016ZM84.8223 19.955C84.4408 21.7097 84.1348 23.4493 83.9049 25.1735L89.1773 25.8765C89.3874 24.3007 89.668 22.7036 90.0199 21.085L84.8223 19.955ZM83.8978 25.2313C83.7056 26.961 83.6065 28.5821 83.6065 30.09H88.9256C88.9256 28.8112 89.0099 27.389 89.1843 25.8187L83.8978 25.2313ZM83.6065 30.09C83.6065 32.1934 83.7987 34.2555 84.5913 35.7085L89.2609 33.1615C89.2632 33.1657 89.2328 33.1096 89.1898 32.9626C89.1476 32.8186 89.1017 32.6163 89.0604 32.3444C88.977 31.7949 88.9256 31.0527 88.9256 30.09H83.6065ZM84.6648 35.8349C85.4948 37.1757 86.8619 38.2495 88.7411 38.2495V32.9305C88.7932 32.9305 88.8662 32.9377 88.9504 32.9619C89.035 32.9863 89.1081 33.0212 89.1652 33.0575C89.2772 33.1288 89.2688 33.1666 89.1874 33.0351L84.6648 35.8349ZM130.407 22.555L128.371 20.8444L128.351 20.8688L128.331 20.8936L130.407 22.555ZM132.277 19.2L129.799 18.2361L129.787 18.2662L129.776 18.2967L132.277 19.2ZM133.377 15.075L130.749 14.6706L130.749 14.6706L133.377 15.075ZM133.212 8.86L130.809 9.99851L130.821 10.0241L130.834 10.0494L133.212 8.86ZM128.592 7.815V5.15547H126.444L125.992 7.25593L128.592 7.815ZM125.127 23.93L122.527 23.3709L121.835 26.5895H125.127V23.93ZM124.357 27.45V24.7905H122.207L121.757 26.8928L124.357 27.45ZM121.882 39V41.6595H124.032L124.483 39.5572L121.882 39ZM110.002 39L107.401 38.4469L106.718 41.6595H110.002V39ZM117.427 4.075V1.41547H115.274L114.826 3.52195L117.427 4.075ZM135.852 4.405L135.516 7.04311L135.516 7.04312L135.852 4.405ZM140.307 5.725L139.063 8.07545L139.063 8.07546L140.307 5.725ZM143.222 8.585L140.901 9.88237L140.909 9.89724L140.918 9.91201L143.222 8.585ZM143.332 18.925L140.831 18.0204L140.826 18.0358L140.821 18.0513L143.332 18.925ZM140.417 23.38L142.244 25.3135L142.245 25.3121L140.417 23.38ZM127.657 26.5895C129.626 26.5895 131.285 25.7152 132.484 24.2164L128.331 20.8936C128.063 21.2282 127.889 21.2705 127.657 21.2705V26.5895ZM132.444 24.2656C133.447 23.0719 134.214 21.668 134.779 20.1033L129.776 18.2967C129.388 19.372 128.908 20.2048 128.371 20.8444L132.444 24.2656ZM134.756 20.1639C135.341 18.6596 135.757 17.0967 136.006 15.4794L130.749 14.6706C130.558 15.9133 130.24 17.1004 129.799 18.2361L134.756 20.1639ZM136.006 15.4794C136.24 13.9598 136.367 12.5721 136.367 11.335H131.048C131.048 12.2246 130.955 13.3302 130.749 14.6706L136.006 15.4794ZM136.367 11.335C136.367 10.0667 136.158 8.80391 135.591 7.67062L130.834 10.0494C130.927 10.2361 131.048 10.6233 131.048 11.335H136.367ZM135.616 7.72149C134.665 5.71317 132.69 5.15547 131.067 5.15547V10.4745C131.359 10.4745 131.381 10.524 131.264 10.4671C131.198 10.4349 131.106 10.3768 131.012 10.2834C130.918 10.1892 130.851 10.0878 130.809 9.99851L135.616 7.72149ZM131.067 5.15547H128.592V10.4745H131.067V5.15547ZM125.992 7.25593L122.527 23.3709L127.728 24.4891L131.193 8.37406L125.992 7.25593ZM125.127 26.5895H127.657V21.2705H125.127V26.5895ZM121.757 26.8928L119.282 38.4428L124.483 39.5572L126.958 28.0072L121.757 26.8928ZM121.882 36.3405H110.002V41.6595H121.882V36.3405ZM112.604 39.5531L120.029 4.62805L114.826 3.52195L107.401 38.4469L112.604 39.5531ZM117.427 6.73452H130.132V1.41547H117.427V6.73452ZM130.132 6.73452C132.132 6.73452 133.924 6.83989 135.516 7.04311L136.189 1.76688C134.335 1.53011 132.313 1.41547 130.132 1.41547V6.73452ZM135.516 7.04312C136.993 7.23166 138.156 7.59534 139.063 8.07545L141.552 3.37454C139.965 2.53466 138.159 2.01833 136.189 1.76688L135.516 7.04312ZM139.063 8.07546C139.851 8.49245 140.451 9.07732 140.901 9.88237L145.544 7.28762C144.601 5.59934 143.257 4.27755 141.552 3.37454L139.063 8.07546ZM140.918 9.91201C141.298 10.572 141.608 11.688 141.608 13.48H146.927C146.927 11.1653 146.541 9.018 145.527 7.25799L140.918 9.91201ZM141.608 13.48C141.608 15.0908 141.346 16.5988 140.831 18.0204L145.833 19.8296C146.566 17.8046 146.927 15.6825 146.927 13.48H141.608ZM140.821 18.0513C140.38 19.3169 139.652 20.4436 138.59 21.4479L142.245 25.3121C143.897 23.7497 145.111 21.9065 145.844 19.7987L140.821 18.0513ZM138.591 21.4465C137.604 22.3794 136.233 23.197 134.38 23.8358L136.114 28.8642C138.515 28.0364 140.591 26.874 142.244 25.3135L138.591 21.4465ZM134.38 23.8358C132.612 24.4457 130.338 24.7905 127.492 24.7905V30.1095C130.734 30.1095 133.63 29.721 136.114 28.8642L134.38 23.8358ZM127.492 24.7905H124.357V30.1095H127.492V24.7905ZM163.386 22.555L161.35 20.8444L161.329 20.8688L161.309 20.8936L163.386 22.555ZM165.256 19.2L162.777 18.2361L162.766 18.2662L162.755 18.2967L165.256 19.2ZM166.356 15.075L163.727 14.6706L163.727 14.6706L166.356 15.075ZM166.191 8.86L163.787 9.99851L163.8 10.0241L163.812 10.0494L166.191 8.86ZM161.571 7.815V5.15547H159.422L158.971 7.25593L161.571 7.815ZM158.106 23.93L155.506 23.3709L154.814 26.5895H158.106V23.93ZM157.336 27.45V24.7905H155.186L154.735 26.8928L157.336 27.45ZM154.861 39V41.6595H157.011L157.461 39.5572L154.861 39ZM142.981 39L140.38 38.4469L139.697 41.6595H142.981V39ZM150.406 4.075V1.41547H148.252L147.805 3.52195L150.406 4.075ZM168.831 4.405L168.494 7.04311L168.494 7.04312L168.831 4.405ZM173.286 5.725L172.042 8.07545L172.042 8.07546L173.286 5.725ZM176.201 8.585L173.879 9.88237L173.888 9.89724L173.896 9.91201L176.201 8.585ZM176.311 18.925L173.81 18.0204L173.804 18.0358L173.799 18.0513L176.311 18.925ZM173.396 23.38L175.222 25.3135L175.224 25.3121L173.396 23.38ZM160.636 26.5895C162.604 26.5895 164.264 25.7152 165.463 24.2164L161.309 20.8936C161.042 21.2282 160.868 21.2705 160.636 21.2705V26.5895ZM165.422 24.2656C166.425 23.0719 167.192 21.668 167.757 20.1033L162.755 18.2967C162.366 19.372 161.887 20.2048 161.35 20.8444L165.422 24.2656ZM167.735 20.1639C168.32 18.6596 168.736 17.0967 168.985 15.4794L163.727 14.6706C163.536 15.9133 163.219 17.1004 162.777 18.2361L167.735 20.1639ZM168.985 15.4794C169.218 13.9598 169.345 12.5721 169.345 11.335H164.026C164.026 12.2246 163.934 13.3302 163.727 14.6706L168.985 15.4794ZM169.345 11.335C169.345 10.0667 169.136 8.80391 168.57 7.67062L163.812 10.0494C163.906 10.2361 164.026 10.6233 164.026 11.335H169.345ZM168.594 7.72149C167.643 5.71317 165.669 5.15547 164.046 5.15547V10.4745C164.338 10.4745 164.359 10.524 164.242 10.4671C164.176 10.4349 164.084 10.3768 163.991 10.2834C163.897 10.1892 163.83 10.0878 163.787 9.99851L168.594 7.72149ZM164.046 5.15547H161.571V10.4745H164.046V5.15547ZM158.971 7.25593L155.506 23.3709L160.706 24.4891L164.171 8.37406L158.971 7.25593ZM158.106 26.5895H160.636V21.2705H158.106V26.5895ZM154.735 26.8928L152.26 38.4428L157.461 39.5572L159.936 28.0072L154.735 26.8928ZM154.861 36.3405H142.981V41.6595H154.861V36.3405ZM145.582 39.5531L153.007 4.62805L147.805 3.52195L140.38 38.4469L145.582 39.5531ZM150.406 6.73452H163.111V1.41547H150.406V6.73452ZM163.111 6.73452C165.11 6.73452 166.902 6.83989 168.494 7.04311L169.168 1.76688C167.313 1.53011 165.292 1.41547 163.111 1.41547V6.73452ZM168.494 7.04312C169.971 7.23166 171.135 7.59534 172.042 8.07545L174.53 3.37454C172.944 2.53466 171.137 2.01833 169.168 1.76688L168.494 7.04312ZM172.042 8.07546C172.829 8.49245 173.429 9.07732 173.879 9.88237L178.523 7.28762C177.579 5.59934 176.236 4.27755 174.53 3.37454L172.042 8.07546ZM173.896 9.91201C174.276 10.572 174.586 11.688 174.586 13.48H179.905C179.905 11.1653 179.519 9.018 178.506 7.25799L173.896 9.91201ZM174.586 13.48C174.586 15.0908 174.324 16.5988 173.81 18.0204L178.812 19.8296C179.544 17.8046 179.905 15.6825 179.905 13.48H174.586ZM173.799 18.0513C173.359 19.3169 172.63 20.4436 171.568 21.4479L175.224 25.3121C176.875 23.7497 178.09 21.9065 178.823 19.7987L173.799 18.0513ZM171.57 21.4465C170.582 22.3794 169.211 23.197 167.359 23.8358L169.093 28.8642C171.494 28.0364 173.57 26.874 175.222 25.3135L171.57 21.4465ZM167.359 23.8358C165.59 24.4457 163.316 24.7905 160.471 24.7905V30.1095C163.712 30.1095 166.608 29.721 169.093 28.8642L167.359 23.8358ZM160.471 24.7905H157.336V30.1095H160.471V24.7905ZM187.839 39V41.6595H189.99L190.44 39.557L187.839 39ZM175.959 39L173.358 38.4469L172.675 41.6595H175.959V39ZM183.384 4.075V1.41547H181.231L180.783 3.52195L183.384 4.075ZM195.319 4.075L197.92 4.63197L198.609 1.41547H195.319V4.075ZM187.839 36.3405H175.959V41.6595H187.839V36.3405ZM178.561 39.5531L185.986 4.62805L180.783 3.52195L173.358 38.4469L178.561 39.5531ZM183.384 6.73452H195.319V1.41547H183.384V6.73452ZM192.719 3.51803L185.239 38.443L190.44 39.557L197.92 4.63197L192.719 3.51803ZM201.324 4.075V1.41547H199.17L198.723 3.52195L201.324 4.075ZM224.479 4.075L227.081 4.62289L227.757 1.41547H224.479V4.075ZM223.599 8.255V10.9145H225.757L226.201 8.80289L223.599 8.255ZM212.379 8.255V5.59547H210.236L209.78 7.68948L212.379 8.255ZM210.069 18.87L207.47 18.3045L206.768 21.5295H210.069V18.87ZM219.474 18.87L222.075 19.4249L222.761 16.2105H219.474V18.87ZM218.594 22.995V25.6545H220.746L221.195 23.5499L218.594 22.995ZM209.189 22.995V20.3355H207.04L206.589 22.4361L209.189 22.995ZM206.659 34.765L204.059 34.2061L203.367 37.4245H206.659V34.765ZM217.879 34.765L220.489 35.2735L221.107 32.1055H217.879V34.765ZM217.054 39V41.6595H219.245L219.664 39.5085L217.054 39ZM193.899 39L191.298 38.4469L190.615 41.6595H193.899V39ZM201.324 6.73452H224.479V1.41547H201.324V6.73452ZM221.876 3.52711L220.996 7.70711L226.201 8.80289L227.081 4.62289L221.876 3.52711ZM223.599 5.59547H212.379V10.9145H223.599V5.59547ZM209.78 7.68948L207.47 18.3045L212.668 19.4355L214.978 8.82052L209.78 7.68948ZM210.069 21.5295H219.474V16.2105H210.069V21.5295ZM216.873 18.3151L215.993 22.4401L221.195 23.5499L222.075 19.4249L216.873 18.3151ZM218.594 20.3355H209.189V25.6545H218.594V20.3355ZM206.589 22.4361L204.059 34.2061L209.259 35.3239L211.789 23.5539L206.589 22.4361ZM206.659 37.4245H217.879V32.1055H206.659V37.4245ZM215.268 34.2565L214.443 38.4915L219.664 39.5085L220.489 35.2735L215.268 34.2565ZM217.054 36.3405H193.899V41.6595H217.054V36.3405ZM196.5 39.5531L203.925 4.62805L198.723 3.52195L191.298 38.4469L196.5 39.5531Z" fill="#353535" mask="url(#path-1-outside-1_13439_28436)"/>
</g>
<defs>
<filter id="filter0_d_13439_28436" x="0.140625" y="0.867188" width="227.617" height="47.8793" filterUnits="userSpaceOnUse" color-interpolation-filters="sRGB">
<feFlood flood-opacity="0" result="BackgroundImageFix"/>
<feColorMatrix in="SourceAlpha" type="matrix" values="0 0 0 0 0 0 0 0 0 0 0 0 0 0 0 0 0 0 127 0" result="hardAlpha"/>
<feOffset dy="6.64881"/>
<feComposite in2="hardAlpha" operator="out"/>
<feColorMatrix type="matrix" values="0 0 0 0 0.104167 0 0 0 0 0.104167 0 0 0 0 0.104167 0 0 0 1 0"/>
<feBlend mode="normal" in2="BackgroundImageFix" result="effect1_dropShadow_13439_28436"/>
<feBlend mode="normal" in="SourceGraphic" in2="effect1_dropShadow_13439_28436" result="shape"/>
</filter>
</defs>
</svg>
